<?xml version="1.0" encoding="utf-8"?>
<!-- Generator: Adobe Illustrator 15.1.0, SVG Export Plug-In . SVG Version: 6.00 Build 0)  -->
<!DOCTYPE svg PUBLIC "-//W3C//DTD SVG 1.1//EN" "http://www.w3.org/Graphics/SVG/1.1/DTD/svg11.dtd">
<svg version="1.1" id="Layer_1" xmlns="http://www.w3.org/2000/svg" xmlns:xlink="http://www.w3.org/1999/xlink" x="0px" y="0px"
	 width="140px" height="137.333px" viewBox="0 0 140 137.333" style="enable-background:new 0 0 140 137.333;" xml:space="preserve"
	>
<g>
	<path d="M107.022,49.081l-2.557-2.963c-0.527-0.611-1.453-0.678-2.063-0.151c-0.61,0.526-0.677,1.452-0.151,2.061l2.558,2.963
		c0.527,0.61,1.451,0.679,2.061,0.152C107.481,50.617,107.549,49.692,107.022,49.081z"/>
	<path d="M114.694,57.969c-0.527-0.61-1.452-0.677-2.063-0.15c-0.609,0.526-0.677,1.45-0.151,2.061l2.558,2.963
		c0.527,0.61,1.452,0.68,2.062,0.152c0.611-0.526,0.678-1.452,0.152-2.062L114.694,57.969z"/>
	<path d="M112.137,55.006l-2.558-2.961c-0.526-0.611-1.451-0.679-2.062-0.152c-0.609,0.527-0.678,1.451-0.15,2.062l2.557,2.963
		c0.528,0.61,1.452,0.678,2.062,0.152C112.595,56.543,112.664,55.618,112.137,55.006z"/>
	<path d="M64.779,90.667l-3.47-1.809c-0.698-0.363-1.605-0.083-1.972,0.621c-0.181,0.346-0.216,0.743-0.098,1.117
		c0.118,0.372,0.374,0.676,0.719,0.854l3.471,1.81c0.535,0.28,1.175,0.205,1.632-0.188c0.14-0.121,0.255-0.268,0.34-0.432
		C65.772,91.925,65.493,91.041,64.779,90.667z"/>
	<path d="M57.837,87.05l-3.469-1.81c-0.699-0.365-1.606-0.084-1.973,0.62c-0.182,0.347-0.215,0.743-0.099,1.115
		c0.118,0.373,0.373,0.678,0.719,0.857l3.471,1.811c0.535,0.278,1.175,0.204,1.631-0.19c0.142-0.122,0.257-0.27,0.341-0.431
		c0.181-0.346,0.216-0.741,0.099-1.114C58.44,87.535,58.184,87.231,57.837,87.05z"/>
	<path d="M71.721,94.288l-3.471-1.812c-0.698-0.364-1.603-0.088-1.973,0.621c-0.372,0.716-0.095,1.601,0.62,1.972l3.471,1.811
		c0.535,0.279,1.176,0.204,1.632-0.19c0.145-0.124,0.26-0.271,0.342-0.431C72.713,95.546,72.436,94.661,71.721,94.288z"/>
	<path d="M70.249,54.211l3.483,1.784c0.533,0.272,1.169,0.195,1.622-0.195c0.144-0.124,0.259-0.272,0.345-0.439
		c0.368-0.716,0.083-1.6-0.634-1.969l-3.484-1.785c-0.7-0.357-1.606-0.069-1.967,0.634C69.247,52.958,69.53,53.842,70.249,54.211z"
		/>
	<path d="M106.502,63.114c-0.781,0.674-0.869,1.855-0.196,2.635c0.672,0.777,1.853,0.864,2.634,0.19
		c0.78-0.673,0.868-1.855,0.196-2.634C108.464,62.527,107.281,62.44,106.502,63.114z M107.961,64.806
		c-0.154,0.133-0.387,0.116-0.52-0.038c-0.132-0.153-0.114-0.388,0.039-0.52c0.154-0.133,0.389-0.116,0.521,0.038
		C108.133,64.438,108.115,64.673,107.961,64.806z"/>
	<path d="M92.665,63.221c0.26,0.02,0.503-0.069,0.687-0.227c0.181-0.157,0.305-0.386,0.324-0.645
		c0.039-0.52-0.351-0.971-0.871-1.009c-5.069-0.37-9.502,3.455-9.878,8.527c-0.04,0.518,0.351,0.97,0.871,1.008
		c0.518,0.04,0.973-0.353,1.01-0.871C85.106,65.969,88.632,62.927,92.665,63.221z"/>
	<path d="M91.323,77.554c-0.521-0.039-0.973,0.353-1.01,0.872c-0.039,0.521,0.35,0.972,0.871,1.01
		c2.535,0.183,4.911-0.681,6.7-2.224c1.789-1.544,2.989-3.767,3.178-6.303c0.039-0.519-0.35-0.97-0.871-1.008
		c-0.519-0.04-0.973,0.353-1.01,0.871C98.881,74.805,95.356,77.847,91.323,77.554z"/>
	<path d="M94.418,73.168c1.508-1.302,1.677-3.584,0.378-5.09c-1.3-1.506-3.584-1.673-5.092-0.371
		c-1.508,1.301-1.678,3.585-0.378,5.091C90.626,74.304,92.911,74.469,94.418,73.168z M90.901,69.093
		c0.742-0.641,1.868-0.559,2.508,0.183c0.64,0.741,0.557,1.866-0.185,2.507c-0.744,0.643-1.87,0.561-2.51-0.182
		C90.073,70.859,90.157,69.735,90.901,69.093z"/>
	<path d="M130.122,62.098c-1.271-11.79-6.004-23.323-14.321-32.96C94.005,3.883,55.726,1.069,30.471,22.865
		C5.217,44.662,2.403,82.941,24.199,108.196c21.796,25.254,60.075,28.067,85.33,6.271
		C125.146,100.989,132.182,81.206,130.122,62.098z M127.771,54.472c0.104,0.426,0.201,0.854,0.296,1.281
		c0.223,1.262,0.446,2.602,0.629,3.715l-7.283,6.285l-1.604-1.858c-0.528-0.61-1.454-0.678-2.064-0.151
		c-0.609,0.525-0.677,1.45-0.15,2.061l1.604,1.858L92.852,90.403l-1.604-1.859c-0.526-0.61-1.453-0.679-2.062-0.152
		c-0.61,0.526-0.677,1.452-0.151,2.062l1.604,1.858l-9.721,8.39l-3.267-3.784c3.768-4.209,3.84-10.527,0.123-14.836
		c-3.718-4.306-9.979-5.159-14.695-2.049l-3.266-3.784l9.722-8.39l1.6,1.856c0.527,0.61,1.452,0.677,2.062,0.15
		c0.61-0.527,0.679-1.452,0.151-2.062l-1.601-1.855l17.634-15.219l7.76,8.992c-4.175-1.962-9.3-1.434-13.016,1.773
		c-5.033,4.344-5.599,11.968-1.26,16.995c4.338,5.025,11.961,5.58,16.995,1.237c5.034-4.344,5.598-11.967,1.26-16.993
		c-0.35-0.406-0.729-0.771-1.119-1.119l-0.092-2.551l-0.071,0.015l0.061-0.036l-8.603-9.967l6.796-5.865l1.601,1.856
		c0.527,0.61,1.452,0.678,2.062,0.152c0.611-0.527,0.678-1.452,0.152-2.062l-1.602-1.856l9.225-7.962l3.267,3.784
		c-3.767,4.209-3.839,10.527-0.121,14.837c3.719,4.31,9.979,5.16,14.693,2.049L127.771,54.472z M73.121,97.833
		c0.118,0.373,0.373,0.677,0.718,0.857l2.188,1.142l-5.74,11.21l-4.45-2.279c0.845-2.344,0.884-4.838,0.11-7.237
		c-0.923-2.857-2.904-5.186-5.577-6.555c-2.674-1.37-5.722-1.616-8.579-0.693c-2.372,0.764-4.408,2.28-5.807,4.317l-4.45-2.278
		l5.848-11.419l2.165,1.129c0.701,0.366,1.617,0.068,1.972-0.619c0.181-0.347,0.216-0.742,0.099-1.116
		c-0.118-0.372-0.373-0.676-0.718-0.857l-2.183-1.137L64.583,51.31l2.182,1.119c0.701,0.358,1.601,0.077,1.967-0.635
		c0.368-0.717,0.084-1.601-0.633-1.968l-2.182-1.12l5.555-10.848l4.448,2.28c-0.845,2.346-0.884,4.84-0.109,7.234
		c0.907,2.815,2.843,5.117,5.458,6.497l-1.965,1.696l-0.755-0.388c-0.699-0.358-1.606-0.069-1.968,0.636
		c-0.178,0.346-0.21,0.742-0.092,1.114c0.087,0.268,0.245,0.499,0.456,0.675l-20.149,17.39c-0.61,0.526-0.679,1.452-0.152,2.062
		l5.116,5.927c0.526,0.61,1.452,0.678,2.062,0.151c3.473-2.997,8.738-2.611,11.737,0.863c2.998,3.474,2.612,8.739-0.863,11.737
		c-0.07,0.062-0.135,0.129-0.194,0.204c-0.528,0.002-1.036,0.309-1.283,0.781C73.039,97.064,73.003,97.46,73.121,97.833z
		 M100.244,68.309l-0.146-4.046c3.362,4.292,2.796,10.532-1.38,14.137c-4.302,3.713-10.819,3.239-14.526-1.057
		c-3.708-4.295-3.224-10.811,1.079-14.526c3.428-2.958,8.258-3.25,11.956-1.076l-0.802,6.259L100.244,68.309z M108.875,113.71
		c-24.837,21.436-62.483,18.669-83.919-6.167C3.52,82.705,6.287,45.059,31.125,23.623c24.838-21.437,62.483-18.668,83.919,6.169
		c5.523,6.399,9.43,13.65,11.776,21.252c-0.074-0.124-0.139-0.178-0.191-0.133c-3.473,2.998-8.738,2.61-11.736-0.864
		c-2.999-3.474-2.612-8.739,0.862-11.738c0.61-0.527,0.678-1.451,0.152-2.062l-5.117-5.927c-0.527-0.61-1.451-0.678-2.062-0.152
		l-25.017,21.59c-0.001,0-0.002-0.001-0.002-0.001c-0.344-0.124-0.676-0.269-0.99-0.432c-1.979-1.013-3.445-2.736-4.126-4.853
		c-0.684-2.112-0.501-4.367,0.513-6.349c0.367-0.717,0.081-1.599-0.636-1.966l-6.968-3.569c-0.348-0.18-0.744-0.212-1.116-0.089
		c-0.368,0.119-0.676,0.382-0.852,0.725L38.265,96.283c-0.179,0.348-0.212,0.744-0.093,1.115c0.121,0.373,0.378,0.675,0.726,0.854
		l6.967,3.568c0.346,0.178,0.743,0.211,1.12,0.091c0.365-0.119,0.674-0.384,0.85-0.726c1.009-1.969,2.747-3.446,4.852-4.126
		c2.117-0.682,4.371-0.5,6.349,0.514c1.978,1.012,3.444,2.734,4.125,4.849c0.685,2.118,0.502,4.373-0.511,6.351
		c-0.175,0.342-0.209,0.748-0.09,1.116c0.121,0.371,0.377,0.674,0.725,0.852l6.968,3.569c0.533,0.273,1.169,0.196,1.623-0.195
		c0.146-0.125,0.262-0.274,0.346-0.439l5.969-11.655l1.467,1.701c0.527,0.61,1.453,0.678,2.062,0.152l47.467-40.968
		C130.969,81.479,124.045,100.618,108.875,113.71z"/>
</g>
</svg>
