<?xml version="1.0" encoding="utf-8"?>
<!-- Generator: Adobe Illustrator 19.0.0, SVG Export Plug-In . SVG Version: 6.00 Build 0)  -->
<svg version="1.1" id="Layer_1" xmlns="http://www.w3.org/2000/svg" xmlns:xlink="http://www.w3.org/1999/xlink" x="0px" y="0px"
	 width="1066px" height="129px" viewBox="0 0 1066 129" enable-background="new 0 0 1066 129" xml:space="preserve">
<path fill="#FFFFFF" d="M586.7,110.2c-6.9-7.2-14.2-12.7-21.8-16.4c0.4-0.3,0.8-0.7,1.2-1c6.6-6.1,10.6-14.4,11.3-23.4
	c0.8-9.5-2.1-18.7-8.2-26c-6.1-7.3-14.6-11.8-24-12.5c-1-0.1-1.9-0.1-2.9-0.1c-8.9,0-17.3,3.4-23.9,9.5
	c-6.6,6.1-10.6,14.4-11.3,23.4c-0.8,9.5,2.1,18.7,8.2,26c1.3,1.5,2.7,2.9,4.1,4.2c-4.8,2.3-9.5,5.4-14,9.1c-4.1-8.8-9-16-14.8-21.6
	c-2.1-2-4.2-3.7-6.4-5.2c1-0.7,2-1.5,2.9-2.4c6.6-6.1,10.6-14.4,11.3-23.4c0.8-9.5-2.1-18.7-8.2-26c-6.1-7.3-14.6-11.8-24-12.5
	c-1-0.1-1.9-0.1-2.9-0.1c-8.9,0-17.3,3.4-23.9,9.5c-6.6,6.1-10.6,14.4-11.3,23.4c-0.8,9.5,2.1,18.7,8.2,26c1.9,2.3,4.1,4.3,6.4,6
	c-10,7-18.7,19-25.3,35.3c-1.4,3.5,0.3,7.5,3.8,8.9c3.5,1.4,7.5-0.3,8.9-3.8c4.7-11.5,10.6-20.6,17-26.4c5.6-5,11.3-7.5,17.2-7.4
	c12.4,0.3,24.2,12.4,31.7,32.6c0.2,1.5,0.9,3,2.1,4.1c1.3,1.3,3,1.9,4.7,1.9c1.8,0,3.6-0.7,5-2.1c10.2-10.8,21-16.7,32-17.5
	c0.8,0.1,1.7,0.1,2.5,0.1c0.8,0,1.6,0,2.4-0.1c11,0.8,21.8,6.6,32.1,17.5c2.6,2.7,6.9,2.8,9.7,0.2
	C589.2,117.3,589.3,112.9,586.7,110.2z M463.3,69.5c-0.6,0-1.2,0-1.7-0.1c-5.7-0.5-10.9-3.2-14.6-7.6c-3.7-4.5-5.5-10.2-5.1-16.1
	c0.9-11.4,10.4-20.3,21.5-20.3c0.6,0,1.2,0,1.7,0.1c5.7,0.5,10.9,3.2,14.6,7.6c3.7,4.5,5.5,10.2,5.1,16.1
	C483.9,60.6,474.4,69.5,463.3,69.5z M563.7,68.2c-0.9,10.6-9.2,19.1-19.3,20.2c-0.8,0-1.6-0.1-2.3-0.1c-0.7,0-1.4,0-2.2,0.1
	c-5.5-0.6-10.5-3.3-14.1-7.6c-3.7-4.5-5.5-10.2-5.1-16.1c0.9-11.4,10.4-20.3,21.5-20.3c0.6,0,1.2,0,1.7,0.1
	c5.7,0.5,10.9,3.2,14.6,7.6C562.4,56.6,564.2,62.3,563.7,68.2z"/>
<path fill="#FFFFFF" d="M50.8,81.6c0-9.8-6.2-15.7-14-17.6c4.5-2.3,8.9-7,8.9-15c0-11.6-9-17.7-20.6-17.7H3.2v69.2h26.7
	C42.1,100.4,50.8,93.2,50.8,81.6z M9,36.4h14.4c9.8,0,16.5,3.8,16.5,12.8c0,9-6.7,13.1-15.3,13.1H9V36.4z M9,95.2V67.4h18
	c10.5,0,17.9,4.3,17.9,14.1c0,9.6-7.1,13.7-16.9,13.7H9z"/>
<polygon fill="#FFFFFF" points="96.2,95.2 62.3,95.2 62.3,31.2 56.5,31.2 56.5,100.4 96.2,100.4 "/>
<path fill="#FFFFFF" d="M126.6,101.4c20.1,0,35.1-15.4,35.1-35.7c0-20.4-15.1-35.5-34.9-35.5c-19.9,0-35.3,15.1-35.3,35.6
	C91.5,86,106.5,101.4,126.6,101.4z M126.7,35.5c16.7,0,29.1,12.9,29.1,30.3c0,17.3-12.4,30.4-29.1,30.4c-16.8,0-29.2-13.1-29.2-30.3
	C97.4,48.6,109.9,35.5,126.7,35.5z"/>
<path fill="#FFFFFF" d="M201.4,101.4c20.1,0,35.1-15.4,35.1-35.7c0-20.4-15.1-35.5-34.9-35.5c-19.9,0-35.3,15.1-35.3,35.6
	C166.3,86,181.3,101.4,201.4,101.4z M201.5,35.5c16.7,0,29.1,12.9,29.1,30.3c0,17.3-12.4,30.4-29.1,30.4
	c-16.8,0-29.2-13.1-29.2-30.3C172.2,48.6,184.7,35.5,201.5,35.5z"/>
<path fill="#FFFFFF" d="M297.6,65.8c0-19.4-11.6-34.6-33.1-34.6h-23v69.2h22.9C285.6,100.4,297.6,85.5,297.6,65.8z M262.5,95.2
	h-15.1V36.4h15.5c17.5,0,28.9,9.9,28.9,29.4C291.8,84.9,280.9,95.2,262.5,95.2z"/>
<polygon fill="#FFFFFF" points="341.4,31.2 319.8,65.4 298.8,31.2 292,31.2 316.8,71.1 316.8,100.4 322.6,100.4 322.6,71.2 
	347.9,31.2 "/>
<path fill="#FFFFFF" d="M423.3,63.6h-29V74h15.5c-0.5,9-7.8,14.4-16.6,14.4c-12.4,0-19.5-10.5-19.5-22c0-12.5,8.3-22.5,21.1-22.5
	c5.7,0,11.6,2,16.2,5.5l5.7-8.9c-6.1-5.2-14.8-8.1-23.2-8.1c-18.9,0-33.2,14.7-33.2,34.2c0,17.6,11.6,33.3,32.8,33.3
	C411.9,99.7,423.3,87.5,423.3,63.6z"/>
<path fill="#FFFFFF" d="M587.1,100.7h24.4c21.4,0,33.5-14.9,33.5-34.6c0-19.4-11.7-34.6-33.4-34.6h-24.5V100.7z M600.8,43.5h9.3
	c13.6,0,21,6.5,21,22.7c0,15.5-6.9,22.5-21.2,22.5h-9V43.5z"/>
<polygon fill="#FFFFFF" points="705.2,58.7 680.3,58.7 680.3,31.4 664.2,31.4 664.2,100.6 680.3,100.6 680.3,72.7 705.2,72.7 
	705.2,100.6 721.3,100.6 721.3,31.4 705.2,31.4 "/>
<path fill="#FFFFFF" d="M767.4,75.1c0,7.8-4.9,12.2-11.5,12.2c-7,0-12.2-5-12.2-12.2V31.4h-16v43.7c0,16,11.2,26.5,27.6,26.5
	c16.4,0,27.8-10.6,27.8-26.6V31.4h-15.7V75.1z"/>
<polygon fill="#FFFFFF" points="846.1,31.2 827.5,71.1 808.7,31.2 791.4,31.2 788.6,100.4 804.3,100.4 805.9,57.6 821.6,91.2 
	832.6,91.2 847.7,57.4 849.1,100.4 865.6,100.4 862.9,31.2 "/>
<path fill="#FFFFFF" d="M892.2,31.2L868,100.4h16.6l4.7-15.1h23.4l4.8,15.1h17.4l-24.5-69.2H892.2z M893.3,72.1l7.6-24.3l7.7,24.3
	H893.3z"/>
<polygon fill="#FFFFFF" points="981.4,74.8 955.5,31.2 938.5,31.2 938.5,100.4 953.8,100.4 953.5,57.4 979.1,100.4 996.4,100.4 
	996.4,31.2 981.1,31.2 "/>
<path fill="#FFFFFF" d="M1018.4,50.8c0-4.4,4-6.7,9.9-6.7c5,0,11,1.7,16.7,5.3l6.8-10.7c-6.5-5.2-15.3-8.5-24.5-8.5
	c-13.5,0-24.8,7.3-24.8,21.8c0,25.2,34,16,34,28.5c0,4.4-4,6.5-9.9,6.5c-6.2,0-12.6-2.3-19.1-6.8l-7,11c7.1,5.9,16.1,10.2,26.9,10.2
	c14.2,0,25.4-7.2,25.4-22C1052.9,53.5,1018.4,63.5,1018.4,50.8z"/>
</svg>
