<?xml version="1.0" encoding="utf-8"?>
<!-- Generator: Adobe Illustrator 18.1.1, SVG Export Plug-In . SVG Version: 6.00 Build 0)  -->
<svg version="1.1" id="Layer_1" xmlns:sketch="http://www.bohemiancoding.com/sketch/ns"
	 xmlns="http://www.w3.org/2000/svg" xmlns:xlink="http://www.w3.org/1999/xlink" x="0px" y="0px" width="420px" height="103px"
	 viewBox="93 -1 420 103" style="enable-background:new 93 -1 420 103;" xml:space="preserve">
<style type="text/css">
	.st0{fill:#F9F9F9;}
</style>
<title>Group</title>
<desc>Created with Sketch.</desc>
<g id="Page-1_8_" sketch:type="MSPage">
	<g id="BGH-homepage" transform="translate(0.000000, -396.000000)" sketch:type="MSArtboardGroup">
		<g id="Group" transform="translate(-39.000000, 396.000000)" sketch:type="MSLayerGroup">
			<g id="Page-1" transform="translate(300.000000, 34.000000)" sketch:type="MSShapeGroup">
				<g id="Group-3">
					<path id="Fill-1" class="st0" d="M145.8,10.3c0.3-3.6,3.3-6.4,6.8-6.4c0.2,0,0.4,0,0.5,0c1.8,0.1,3.4,1,4.6,2.4
						c1.2,1.4,1.7,3.2,1.6,5.1c-0.3,3.6-3.3,6.4-6.8,6.4c-0.2,0-0.4,0-0.5,0c-1.8-0.1-3.4-1-4.6-2.4C146.3,14,145.7,12.2,145.8,10.3
						 M170.7,16.3c0.3-3.6,3.3-6.4,6.8-6.4c0.2,0,0.4,0,0.5,0c1.8,0.1,3.4,1,4.6,2.4c1.2,1.4,1.7,3.2,1.6,5.1
						c-0.3,3.4-2.9,6-6.1,6.4c-0.2,0-0.5,0-0.7,0c-0.2,0-0.5,0-0.7,0c-1.7-0.2-3.3-1-4.4-2.4C171.1,20,170.5,18.2,170.7,16.3
						 M195.5,10.3c0.3-3.6,3.3-6.4,6.8-6.4c0.2,0,0.4,0,0.5,0c1.8,0.1,3.4,1,4.6,2.4c1.2,1.4,1.7,3.2,1.6,5.1
						c-0.3,3.6-3.3,6.4-6.8,6.4c-0.2,0-0.4,0-0.5,0c-1.8-0.1-3.4-1-4.6-2.4C195.9,14,195.3,12.2,195.5,10.3 M220.3,16.3
						c0.3-3.6,3.3-6.4,6.8-6.4c0.2,0,0.4,0,0.5,0c1.8,0.1,3.4,1,4.6,2.4c1.2,1.4,1.7,3.2,1.6,5.1c-0.3,3.4-2.9,6-6.1,6.4
						c-0.2,0-0.5,0-0.7,0c-0.2,0-0.5,0-0.7,0c-1.7-0.2-3.3-1-4.4-2.4C220.7,20,220.1,18.2,220.3,16.3 M245.5,10.3
						c0.3-3.6,3.3-6.4,6.8-6.4c0.2,0,0.4,0,0.5,0c1.8,0.1,3.4,1,4.6,2.4c1.2,1.4,1.7,3.2,1.6,5.1c-0.3,3.6-3.3,6.4-6.8,6.4
						c-0.2,0-0.4,0-0.5,0c-1.8-0.1-3.4-1-4.6-2.4C245.9,14,245.3,12.2,245.5,10.3 M139.3,34c1.1,0.5,2.4-0.1,2.8-1.2
						c1.5-3.6,3.3-6.5,5.3-8.3c1.7-1.6,3.6-2.4,5.4-2.3c3.9,0.1,7.6,3.9,10,10.3c0.1,0.5,0.3,0.9,0.7,1.3c0.4,0.4,0.9,0.6,1.5,0.6
						c0.6,0,1.1-0.2,1.6-0.7c3.2-3.4,6.6-5.3,10.1-5.5c0.3,0,0.5,0,0.8,0c0.3,0,0.5,0,0.8,0c3.5,0.2,6.9,2.1,10.1,5.5
						c0.8,0.9,2.2,0.9,3,0.1c0.4-0.4,0.6-0.9,0.7-1.3c1.4-3.4,3.2-6.1,5.2-7.9c1.7-1.6,3.6-2.4,5.4-2.3c3.9,0.1,7.6,3.9,10,10.3
						c0.1,0.5,0.3,0.9,0.7,1.3c0.4,0.4,0.9,0.6,1.5,0.6c0.6,0,1.1-0.2,1.6-0.7c3.2-3.4,6.6-5.3,10.1-5.5c0.3,0,0.5,0,0.8,0
						c0.3,0,0.5,0,0.8,0c3.5,0.2,6.9,2.1,10.1,5.5c0.7,0.8,1.8,0.9,2.7,0.4c0.5-0.2,1-0.6,1.2-1.2c1.5-3.6,3.3-6.5,5.3-8.3
						c1.7-1.6,3.6-2.4,5.4-2.3c6.2,0.2,11.7,11,12.1,12.2l0,0v-7.6c-1.1-2-2.4-3.7-3.8-5.1c-0.6-0.6-1.3-1.2-2-1.7
						c0.3-0.2,0.6-0.5,0.9-0.8c2.1-1.9,3.3-4.6,3.6-7.4c0.2-3-0.7-5.9-2.6-8.2c-1.9-2.3-4.6-3.7-7.6-4c-0.3,0-0.6,0-0.9,0
						c-2.8,0-5.5,1.1-7.5,3c-2.1,1.9-3.3,4.6-3.6,7.4c-0.2,3,0.7,5.9,2.6,8.2c0.6,0.7,1.3,1.4,2,1.9c-2.6,1.8-4.9,4.7-6.8,8.6
						c-1.5-1.3-3.1-2.4-4.7-3.2c0.1-0.1,0.2-0.2,0.4-0.3c2.1-1.9,3.3-4.6,3.6-7.4c0.2-3-0.7-5.9-2.6-8.2c-1.9-2.3-4.6-3.7-7.6-4
						c-0.3,0-0.6,0-0.9,0c-2.8,0-5.5,1.1-7.5,3c-2.1,1.9-3.3,4.6-3.6,7.4c-0.2,3,0.7,5.9,2.6,8.2c0.4,0.5,0.8,0.9,1.3,1.3
						c-1.5,0.7-3,1.7-4.4,2.9c-1.3-2.8-2.8-5.1-4.7-6.8c-0.6-0.6-1.3-1.2-2-1.7c0.3-0.2,0.6-0.5,0.9-0.8c2.1-1.9,3.3-4.6,3.6-7.4
						c0.2-3-0.7-5.9-2.6-8.2c-1.9-2.3-4.6-3.7-7.6-4c-0.3,0-0.6,0-0.9,0c-2.8,0-5.5,1.1-7.5,3c-2.1,1.9-3.3,4.6-3.6,7.4
						c-0.2,3,0.7,5.9,2.6,8.2c0.6,0.7,1.3,1.4,2,1.9c-2.6,1.8-4.8,4.6-6.7,8.4c-1.5-1.2-3-2.2-4.5-2.9c0.1-0.1,0.2-0.2,0.4-0.3
						c2.1-1.9,3.3-4.6,3.6-7.4c0.2-3-0.7-5.9-2.6-8.2c-1.9-2.3-4.6-3.7-7.6-4c-0.3,0-0.6,0-0.9,0c-2.8,0-5.5,1.1-7.5,3
						c-2.1,1.9-3.3,4.6-3.6,7.4c-0.2,3,0.7,5.9,2.6,8.2c0.4,0.5,0.8,0.9,1.3,1.3c-1.5,0.7-3,1.7-4.4,2.9c-1.3-2.8-2.8-5.1-4.7-6.8
						c-0.6-0.6-1.3-1.2-2-1.7c0.3-0.2,0.6-0.5,0.9-0.8c2.1-1.9,3.3-4.6,3.6-7.4c0.2-3-0.7-5.9-2.6-8.2c-1.9-2.3-4.6-3.7-7.6-4
						c-0.3,0-0.6,0-0.9,0c-2.8,0-5.5,1.1-7.5,3c-2.1,1.9-3.3,4.6-3.6,7.4c-0.2,3,0.7,5.9,2.6,8.2c0.6,0.7,1.3,1.4,2,1.9
						c-3.1,2.2-5.9,6-8,11.1C137.7,32.3,138.2,33.6,139.3,34"/>
				</g>
				<g id="Group-6" transform="translate(1.000000, 34.000000)">
					<path id="Fill-4" class="st0" d="M257.1,17.1c-0.3,3.4-2.9,6-6.1,6.4c-0.2,0-1.2,0-1.4,0c-1.7-0.2-3.3-1-4.4-2.4
						c-1.2-1.4-1.7-3.2-1.6-5.1c0.3-3.6,3.3-6.4,6.8-6.4c0.2,0,0.4,0,0.5,0c1.8,0.1,3.4,1,4.6,2.4C256.7,13.4,257.2,15.2,257.1,17.1
						 M225.5,17.5c-0.2,0-0.4,0-0.5,0c-1.8-0.1-3.4-1-4.6-2.4c-1.2-1.4-1.7-3.2-1.6-5.1c0.3-3.6,3.3-6.4,6.8-6.4c0.2,0,0.4,0,0.5,0
						c1.8,0.1,3.4,1,4.6,2.4c1.2,1.4,1.7,3.2,1.6,5.1C232,14.7,229,17.5,225.5,17.5 M207.3,17.1c-0.3,3.4-2.9,6-6.1,6.4
						c-0.2,0-1.2,0-1.4,0c-1.7-0.2-3.3-1-4.4-2.4c-1.2-1.4-1.7-3.2-1.6-5.1c0.3-3.6,3.3-6.4,6.8-6.4c0.2,0,0.4,0,0.5,0
						c1.8,0.1,3.4,1,4.6,2.4C206.9,13.4,207.5,15.2,207.3,17.1 M175.8,17.5c-0.2,0-0.4,0-0.5,0c-1.8-0.1-3.4-1-4.6-2.4
						c-1.2-1.4-1.7-3.2-1.6-5.1c0.3-3.6,3.3-6.4,6.8-6.4c0.2,0,0.4,0,0.5,0c1.8,0.1,3.4,1,4.6,2.4c1.2,1.4,1.7,3.2,1.6,5.1
						C182.2,14.7,179.3,17.5,175.8,17.5 M157.4,17.1c-0.3,3.4-2.9,6-6.1,6.4c-0.2,0-1.2,0-1.4,0c-1.7-0.2-3.3-1-4.4-2.4
						c-1.2-1.4-1.7-3.2-1.6-5.1c0.3-3.6,3.3-6.4,6.8-6.4c0.2,0,0.4,0,0.5,0c1.8,0.1,3.4,1,4.6,2.4C157,13.4,157.5,15.2,157.4,17.1
						 M264.3,30.3c-2.2-2.3-4.5-4-6.9-5.2c0.1-0.1,0.2-0.2,0.4-0.3c2.1-1.9,3.3-4.6,3.6-7.4c0.2-3-0.7-5.9-2.6-8.2
						c-1.9-2.3-4.6-3.7-7.6-4c-0.3,0-0.6,0-0.9,0c-2.8,0-5.5,1.1-7.5,3c-2.1,1.9-3.3,4.6-3.6,7.4c-0.2,3,0.7,5.9,2.6,8.2
						c0.4,0.5,0.8,0.9,1.3,1.3c-1.5,0.7-3,1.7-4.4,2.9c-1.3-2.8-2.8-5.1-4.7-6.8c-0.6-0.6-1.3-1.2-2-1.7c0.3-0.2,0.6-0.5,0.9-0.8
						c2.1-1.9,3.3-4.6,3.6-7.4c0.2-3-0.7-5.9-2.6-8.2c-1.9-2.3-4.6-3.7-7.6-4c-0.3,0-0.6,0-0.9,0c-2.8,0-5.5,1.1-7.5,3
						c-2.1,1.9-3.3,4.6-3.6,7.4c-0.2,3,0.7,5.9,2.6,8.2c0.6,0.7,1.3,1.4,2,1.9c-2.6,1.8-4.9,4.7-6.8,8.4c-1.5-1.2-3-2.2-4.6-3
						c0.1-0.1,0.2-0.2,0.4-0.3c2.1-1.9,3.3-4.6,3.6-7.4c0.2-3-0.7-5.9-2.6-8.2c-1.9-2.3-4.6-3.7-7.6-4c-0.3,0-0.6,0-0.9,0
						c-2.8,0-5.5,1.1-7.5,3c-2.1,1.9-3.3,4.6-3.6,7.4c-0.2,3,0.7,5.9,2.6,8.2c0.4,0.5,0.8,0.9,1.3,1.3c-1.5,0.7-3,1.7-4.4,2.9
						c-1.3-2.8-2.8-5.1-4.7-6.8c-0.6-0.6-1.3-1.2-2-1.7c0.3-0.2,0.6-0.5,0.9-0.8c2.1-1.9,3.3-4.6,3.6-7.4c0.2-3-0.7-5.9-2.6-8.2
						c-1.9-2.3-4.6-3.7-7.6-4c-0.3,0-0.6,0-0.9,0c-2.8,0-5.5,1.1-7.5,3c-2.1,1.9-3.3,4.6-3.6,7.4c-0.2,3,0.7,5.9,2.6,8.2
						c0.6,0.7,1.3,1.4,2,1.9c-2.6,1.8-4.9,4.7-6.8,8.6c-1.5-1.3-3.1-2.4-4.7-3.1c0.1-0.1,0.2-0.2,0.4-0.3c2.1-1.9,3.3-4.6,3.6-7.4
						c0.2-3-0.7-5.9-2.6-8.2c-1.9-2.3-4.6-3.7-7.6-4c-0.3,0-0.6,0-0.9,0c-2.8,0-5.5,1.1-7.5,3c-2.1,1.9-3.3,4.6-3.6,7.4
						c-0.2,3,0.7,5.9,2.6,8.2c0.4,0.5,0.8,0.9,1.3,1.3c-1.5,0.7-4.1,2.3-5.2,3.7v5.2c0.6,0,1.1-0.2,1.6-0.7
						c3.2-3.4,6.6-5.3,10.1-5.5c0.3,0,1.3,0,1.6,0c3.5,0.2,6.9,2.1,10.1,5.5c0.7,0.8,1.9,0.9,2.8,0.3c0.5-0.2,0.9-0.6,1.1-1.1
						c1.5-3.6,3.3-6.5,5.3-8.3c1.7-1.6,3.6-2.4,5.4-2.3c3.9,0.1,7.6,3.9,10,10.3c0.1,0.5,0.3,0.9,0.7,1.3c0.4,0.4,0.9,0.6,1.5,0.6
						c0.6,0,1.1-0.2,1.6-0.7c3.2-3.4,6.6-5.3,10.1-5.5c0.3,0,0.5,0,0.8,0c0.3,0,0.5,0,0.8,0c3.5,0.2,6.9,2.1,10.1,5.5
						c0.8,0.9,2.2,0.9,3,0.1c0.3-0.3,0.5-0.6,0.6-0.9c0,0,0,0,0,0c1.5-3.6,3.3-6.5,5.3-8.3c1.7-1.6,3.6-2.4,5.4-2.3
						c3.9,0.1,7.6,3.9,10,10.3c0.1,0.5,0.3,0.9,0.7,1.3c0.4,0.4,0.9,0.6,1.5,0.6c0.6,0,1.1-0.2,1.6-0.7c3.2-3.4,6.6-5.3,10.1-5.5
						c0.3,0,1.3,0,1.6,0c3.5,0.2,6.9,2.1,10.1,5.5c0.8,0.9,2.2,0.9,3,0.1C265.1,32.5,265.1,31.2,264.3,30.3"/>
				</g>
			</g>
			<g id="Page-1_1_" transform="translate(200.000000, 34.000000)" sketch:type="MSShapeGroup">
				<g id="Group-3_1_">
					<path id="Fill-1_1_" class="st0" d="M145.8,10.3c0.3-3.6,3.3-6.4,6.8-6.4c0.2,0,0.4,0,0.5,0c1.8,0.1,3.4,1,4.6,2.4
						c1.2,1.4,1.7,3.2,1.6,5.1c-0.3,3.6-3.3,6.4-6.8,6.4c-0.2,0-0.4,0-0.5,0c-1.8-0.1-3.4-1-4.6-2.4C146.3,14,145.7,12.2,145.8,10.3
						 M170.7,16.3c0.3-3.6,3.3-6.4,6.8-6.4c0.2,0,0.4,0,0.5,0c1.8,0.1,3.4,1,4.6,2.4c1.2,1.4,1.7,3.2,1.6,5.1
						c-0.3,3.4-2.9,6-6.1,6.4c-0.2,0-0.5,0-0.7,0c-0.2,0-0.5,0-0.7,0c-1.7-0.2-3.3-1-4.4-2.4C171.1,20,170.5,18.2,170.7,16.3
						 M195.5,10.3c0.3-3.6,3.3-6.4,6.8-6.4c0.2,0,0.4,0,0.5,0c1.8,0.1,3.4,1,4.6,2.4c1.2,1.4,1.7,3.2,1.6,5.1
						c-0.3,3.6-3.3,6.4-6.8,6.4c-0.2,0-0.4,0-0.5,0c-1.8-0.1-3.4-1-4.6-2.4C195.9,14,195.3,12.2,195.5,10.3 M220.3,16.3
						c0.3-3.6,3.3-6.4,6.8-6.4c0.2,0,0.4,0,0.5,0c1.8,0.1,3.4,1,4.6,2.4c1.2,1.4,1.7,3.2,1.6,5.1c-0.3,3.4-2.9,6-6.1,6.4
						c-0.2,0-0.5,0-0.7,0c-0.2,0-0.5,0-0.7,0c-1.7-0.2-3.3-1-4.4-2.4C220.7,20,220.1,18.2,220.3,16.3 M245.5,10.3
						c0.3-3.6,3.3-6.4,6.8-6.4c0.2,0,0.4,0,0.5,0c1.8,0.1,3.4,1,4.6,2.4c1.2,1.4,1.7,3.2,1.6,5.1c-0.3,3.6-3.3,6.4-6.8,6.4
						c-0.2,0-0.4,0-0.5,0c-1.8-0.1-3.4-1-4.6-2.4C245.9,14,245.3,12.2,245.5,10.3 M139.3,34c1.1,0.5,2.4-0.1,2.8-1.2
						c1.5-3.6,3.3-6.5,5.3-8.3c1.7-1.6,3.6-2.4,5.4-2.3c3.9,0.1,7.6,3.9,10,10.3c0.1,0.5,0.3,0.9,0.7,1.3c0.4,0.4,0.9,0.6,1.5,0.6
						c0.6,0,1.1-0.2,1.6-0.7c3.2-3.4,6.6-5.3,10.1-5.5c0.3,0,0.5,0,0.8,0c0.3,0,0.5,0,0.8,0c3.5,0.2,6.9,2.1,10.1,5.5
						c0.8,0.9,2.2,0.9,3,0.1c0.4-0.4,0.6-0.9,0.7-1.3c1.4-3.4,3.2-6.1,5.2-7.9c1.7-1.6,3.6-2.4,5.4-2.3c3.9,0.1,7.6,3.9,10,10.3
						c0.1,0.5,0.3,0.9,0.7,1.3c0.4,0.4,0.9,0.6,1.5,0.6c0.6,0,1.1-0.2,1.6-0.7c3.2-3.4,6.6-5.3,10.1-5.5c0.3,0,0.5,0,0.8,0
						c0.3,0,0.5,0,0.8,0c3.5,0.2,6.9,2.1,10.1,5.5c0.7,0.8,1.8,0.9,2.7,0.4c0.5-0.2,1-0.6,1.2-1.2c1.5-3.6,3.3-6.5,5.3-8.3
						c1.7-1.6,3.6-2.4,5.4-2.3c6.2,0.2,11.7,11,12.1,12.2l0,0v-7.6c-1.1-2-2.4-3.7-3.8-5.1c-0.6-0.6-1.3-1.2-2-1.7
						c0.3-0.2,0.6-0.5,0.9-0.8c2.1-1.9,3.3-4.6,3.6-7.4c0.2-3-0.7-5.9-2.6-8.2c-1.9-2.3-4.6-3.7-7.6-4c-0.3,0-0.6,0-0.9,0
						c-2.8,0-5.5,1.1-7.5,3c-2.1,1.9-3.3,4.6-3.6,7.4c-0.2,3,0.7,5.9,2.6,8.2c0.6,0.7,1.3,1.4,2,1.9c-2.6,1.8-4.9,4.7-6.8,8.6
						c-1.5-1.3-3.1-2.4-4.7-3.2c0.1-0.1,0.2-0.2,0.4-0.3c2.1-1.9,3.3-4.6,3.6-7.4c0.2-3-0.7-5.9-2.6-8.2c-1.9-2.3-4.6-3.7-7.6-4
						c-0.3,0-0.6,0-0.9,0c-2.8,0-5.5,1.1-7.5,3c-2.1,1.9-3.3,4.6-3.6,7.4c-0.2,3,0.7,5.9,2.6,8.2c0.4,0.5,0.8,0.9,1.3,1.3
						c-1.5,0.7-3,1.7-4.4,2.9c-1.3-2.8-2.8-5.1-4.7-6.8c-0.6-0.6-1.3-1.2-2-1.7c0.3-0.2,0.6-0.5,0.9-0.8c2.1-1.9,3.3-4.6,3.6-7.4
						c0.2-3-0.7-5.9-2.6-8.2c-1.9-2.3-4.6-3.7-7.6-4c-0.3,0-0.6,0-0.9,0c-2.8,0-5.5,1.1-7.5,3c-2.1,1.9-3.3,4.6-3.6,7.4
						c-0.2,3,0.7,5.9,2.6,8.2c0.6,0.7,1.3,1.4,2,1.9c-2.6,1.8-4.8,4.6-6.7,8.4c-1.5-1.2-3-2.2-4.5-2.9c0.1-0.1,0.2-0.2,0.4-0.3
						c2.1-1.9,3.3-4.6,3.6-7.4c0.2-3-0.7-5.9-2.6-8.2c-1.9-2.3-4.6-3.7-7.6-4c-0.3,0-0.6,0-0.9,0c-2.8,0-5.5,1.1-7.5,3
						c-2.1,1.9-3.3,4.6-3.6,7.4c-0.2,3,0.7,5.9,2.6,8.2c0.4,0.5,0.8,0.9,1.3,1.3c-1.5,0.7-3,1.7-4.4,2.9c-1.3-2.8-2.8-5.1-4.7-6.8
						c-0.6-0.6-1.3-1.2-2-1.7c0.3-0.2,0.6-0.5,0.9-0.8c2.1-1.9,3.3-4.6,3.6-7.4c0.2-3-0.7-5.9-2.6-8.2c-1.9-2.3-4.6-3.7-7.6-4
						c-0.3,0-0.6,0-0.9,0c-2.8,0-5.5,1.1-7.5,3c-2.1,1.9-3.3,4.6-3.6,7.4c-0.2,3,0.7,5.9,2.6,8.2c0.6,0.7,1.3,1.4,2,1.9
						c-3.1,2.2-5.9,6-8,11.1C137.7,32.3,138.2,33.6,139.3,34"/>
				</g>
				<g id="Group-6_1_" transform="translate(1.000000, 34.000000)">
					<path id="Fill-4_1_" class="st0" d="M257.1,17.1c-0.3,3.4-2.9,6-6.1,6.4c-0.2,0-1.2,0-1.4,0c-1.7-0.2-3.3-1-4.4-2.4
						c-1.2-1.4-1.7-3.2-1.6-5.1c0.3-3.6,3.3-6.4,6.8-6.4c0.2,0,0.4,0,0.5,0c1.8,0.1,3.4,1,4.6,2.4C256.7,13.4,257.2,15.2,257.1,17.1
						 M225.5,17.5c-0.2,0-0.4,0-0.5,0c-1.8-0.1-3.4-1-4.6-2.4c-1.2-1.4-1.7-3.2-1.6-5.1c0.3-3.6,3.3-6.4,6.8-6.4c0.2,0,0.4,0,0.5,0
						c1.8,0.1,3.4,1,4.6,2.4c1.2,1.4,1.7,3.2,1.6,5.1C232,14.7,229,17.5,225.5,17.5 M207.3,17.1c-0.3,3.4-2.9,6-6.1,6.4
						c-0.2,0-1.2,0-1.4,0c-1.7-0.2-3.3-1-4.4-2.4c-1.2-1.4-1.7-3.2-1.6-5.1c0.3-3.6,3.3-6.4,6.8-6.4c0.2,0,0.4,0,0.5,0
						c1.8,0.1,3.4,1,4.6,2.4C206.9,13.4,207.5,15.2,207.3,17.1 M175.8,17.5c-0.2,0-0.4,0-0.5,0c-1.8-0.1-3.4-1-4.6-2.4
						c-1.2-1.4-1.7-3.2-1.6-5.1c0.3-3.6,3.3-6.4,6.8-6.4c0.2,0,0.4,0,0.5,0c1.8,0.1,3.4,1,4.6,2.4c1.2,1.4,1.7,3.2,1.6,5.1
						C182.2,14.7,179.3,17.5,175.8,17.5 M157.4,17.1c-0.3,3.4-2.9,6-6.1,6.4c-0.2,0-1.2,0-1.4,0c-1.7-0.2-3.3-1-4.4-2.4
						c-1.2-1.4-1.7-3.2-1.6-5.1c0.3-3.6,3.3-6.4,6.8-6.4c0.2,0,0.4,0,0.5,0c1.8,0.1,3.4,1,4.6,2.4C157,13.4,157.5,15.2,157.4,17.1
						 M264.3,30.3c-2.2-2.3-4.5-4-6.9-5.2c0.1-0.1,0.2-0.2,0.4-0.3c2.1-1.9,3.3-4.6,3.6-7.4c0.2-3-0.7-5.9-2.6-8.2
						c-1.9-2.3-4.6-3.7-7.6-4c-0.3,0-0.6,0-0.9,0c-2.8,0-5.5,1.1-7.5,3c-2.1,1.9-3.3,4.6-3.6,7.4c-0.2,3,0.7,5.9,2.6,8.2
						c0.4,0.5,0.8,0.9,1.3,1.3c-1.5,0.7-3,1.7-4.4,2.9c-1.3-2.8-2.8-5.1-4.7-6.8c-0.6-0.6-1.3-1.2-2-1.7c0.3-0.2,0.6-0.5,0.9-0.8
						c2.1-1.9,3.3-4.6,3.6-7.4c0.2-3-0.7-5.9-2.6-8.2c-1.9-2.3-4.6-3.7-7.6-4c-0.3,0-0.6,0-0.9,0c-2.8,0-5.5,1.1-7.5,3
						c-2.1,1.9-3.3,4.6-3.6,7.4c-0.2,3,0.7,5.9,2.6,8.2c0.6,0.7,1.3,1.4,2,1.9c-2.6,1.8-4.9,4.7-6.8,8.4c-1.5-1.2-3-2.2-4.6-3
						c0.1-0.1,0.2-0.2,0.4-0.3c2.1-1.9,3.3-4.6,3.6-7.4c0.2-3-0.7-5.9-2.6-8.2c-1.9-2.3-4.6-3.7-7.6-4c-0.3,0-0.6,0-0.9,0
						c-2.8,0-5.5,1.1-7.5,3c-2.1,1.9-3.3,4.6-3.6,7.4c-0.2,3,0.7,5.9,2.6,8.2c0.4,0.5,0.8,0.9,1.3,1.3c-1.5,0.7-3,1.7-4.4,2.9
						c-1.3-2.8-2.8-5.1-4.7-6.8c-0.6-0.6-1.3-1.2-2-1.7c0.3-0.2,0.6-0.5,0.9-0.8c2.1-1.9,3.3-4.6,3.6-7.4c0.2-3-0.7-5.9-2.6-8.2
						c-1.9-2.3-4.6-3.7-7.6-4c-0.3,0-0.6,0-0.9,0c-2.8,0-5.5,1.1-7.5,3c-2.1,1.9-3.3,4.6-3.6,7.4c-0.2,3,0.7,5.9,2.6,8.2
						c0.6,0.7,1.3,1.4,2,1.9c-2.6,1.8-4.9,4.7-6.8,8.6c-1.5-1.3-3.1-2.4-4.7-3.1c0.1-0.1,0.2-0.2,0.4-0.3c2.1-1.9,3.3-4.6,3.6-7.4
						c0.2-3-0.7-5.9-2.6-8.2c-1.9-2.3-4.6-3.7-7.6-4c-0.3,0-0.6,0-0.9,0c-2.8,0-5.5,1.1-7.5,3c-2.1,1.9-3.3,4.6-3.6,7.4
						c-0.2,3,0.7,5.9,2.6,8.2c0.4,0.5,0.8,0.9,1.3,1.3c-1.5,0.7-4.1,2.3-5.2,3.7v5.2c0.6,0,1.1-0.2,1.6-0.7
						c3.2-3.4,6.6-5.3,10.1-5.5c0.3,0,1.3,0,1.6,0c3.5,0.2,6.9,2.1,10.1,5.5c0.7,0.8,1.9,0.9,2.8,0.3c0.5-0.2,0.9-0.6,1.1-1.1
						c1.5-3.6,3.3-6.5,5.3-8.3c1.7-1.6,3.6-2.4,5.4-2.3c3.9,0.1,7.6,3.9,10,10.3c0.1,0.5,0.3,0.9,0.7,1.3c0.4,0.4,0.9,0.6,1.5,0.6
						c0.6,0,1.1-0.2,1.6-0.7c3.2-3.4,6.6-5.3,10.1-5.5c0.3,0,0.5,0,0.8,0c0.3,0,0.5,0,0.8,0c3.5,0.2,6.9,2.1,10.1,5.5
						c0.8,0.9,2.2,0.9,3,0.1c0.3-0.3,0.5-0.6,0.6-0.9c0,0,0,0,0,0c1.5-3.6,3.3-6.5,5.3-8.3c1.7-1.6,3.6-2.4,5.4-2.3
						c3.9,0.1,7.6,3.9,10,10.3c0.1,0.5,0.3,0.9,0.7,1.3c0.4,0.4,0.9,0.6,1.5,0.6c0.6,0,1.1-0.2,1.6-0.7c3.2-3.4,6.6-5.3,10.1-5.5
						c0.3,0,1.3,0,1.6,0c3.5,0.2,6.9,2.1,10.1,5.5c0.8,0.9,2.2,0.9,3,0.1C265.1,32.5,265.1,31.2,264.3,30.3"/>
				</g>
			</g>
			<g id="Page-1_2_" transform="translate(301.000000, 0.000000)" sketch:type="MSShapeGroup">
				<g id="Group-6_2_">
					<path id="Fill-4_2_" class="st0" d="M257.1,17.1c-0.3,3.4-2.9,6-6.1,6.4c-0.2,0-1.2,0-1.4,0c-1.7-0.2-3.3-1-4.4-2.4
						c-1.2-1.4-1.7-3.2-1.6-5.1c0.3-3.6,3.3-6.4,6.8-6.4c0.2,0,0.4,0,0.5,0c1.8,0.1,3.4,1,4.6,2.4C256.7,13.4,257.2,15.2,257.1,17.1
						 M225.5,17.5c-0.2,0-0.4,0-0.5,0c-1.8-0.1-3.4-1-4.6-2.4c-1.2-1.4-1.7-3.2-1.6-5.1c0.3-3.6,3.3-6.4,6.8-6.4c0.2,0,0.4,0,0.5,0
						c1.8,0.1,3.4,1,4.6,2.4c1.2,1.4,1.7,3.2,1.6,5.1C232,14.7,229,17.5,225.5,17.5 M207.3,17.1c-0.3,3.4-2.9,6-6.1,6.4
						c-0.2,0-1.2,0-1.4,0c-1.7-0.2-3.3-1-4.4-2.4c-1.2-1.4-1.7-3.2-1.6-5.1c0.3-3.6,3.3-6.4,6.8-6.4c0.2,0,0.4,0,0.5,0
						c1.8,0.1,3.4,1,4.6,2.4C206.9,13.4,207.5,15.2,207.3,17.1 M175.8,17.5c-0.2,0-0.4,0-0.5,0c-1.8-0.1-3.4-1-4.6-2.4
						c-1.2-1.4-1.7-3.2-1.6-5.1c0.3-3.6,3.3-6.4,6.8-6.4c0.2,0,0.4,0,0.5,0c1.8,0.1,3.4,1,4.6,2.4c1.2,1.4,1.7,3.2,1.6,5.1
						C182.2,14.7,179.3,17.5,175.8,17.5 M157.4,17.1c-0.3,3.4-2.9,6-6.1,6.4c-0.2,0-1.2,0-1.4,0c-1.7-0.2-3.3-1-4.4-2.4
						c-1.2-1.4-1.7-3.2-1.6-5.1c0.3-3.6,3.3-6.4,6.8-6.4c0.2,0,0.4,0,0.5,0c1.8,0.1,3.4,1,4.6,2.4C157,13.4,157.5,15.2,157.4,17.1
						 M264.3,30.3c-2.2-2.3-4.5-4-6.9-5.2c0.1-0.1,0.2-0.2,0.4-0.3c2.1-1.9,3.3-4.6,3.6-7.4c0.2-3-0.7-5.9-2.6-8.2
						c-1.9-2.3-4.6-3.7-7.6-4c-0.3,0-0.6,0-0.9,0c-2.8,0-5.5,1.1-7.5,3c-2.1,1.9-3.3,4.6-3.6,7.4c-0.2,3,0.7,5.9,2.6,8.2
						c0.4,0.5,0.8,0.9,1.3,1.3c-1.5,0.7-3,1.7-4.4,2.9c-1.3-2.8-2.8-5.1-4.7-6.8c-0.6-0.6-1.3-1.2-2-1.7c0.3-0.2,0.6-0.5,0.9-0.8
						c2.1-1.9,3.3-4.6,3.6-7.4c0.2-3-0.7-5.9-2.6-8.2c-1.9-2.3-4.6-3.7-7.6-4c-0.3,0-0.6,0-0.9,0c-2.8,0-5.5,1.1-7.5,3
						c-2.1,1.9-3.3,4.6-3.6,7.4c-0.2,3,0.7,5.9,2.6,8.2c0.6,0.7,1.3,1.4,2,1.9c-2.6,1.8-4.9,4.7-6.8,8.4c-1.5-1.2-3-2.2-4.6-3
						c0.1-0.1,0.2-0.2,0.4-0.3c2.1-1.9,3.3-4.6,3.6-7.4c0.2-3-0.7-5.9-2.6-8.2c-1.9-2.3-4.6-3.7-7.6-4c-0.3,0-0.6,0-0.9,0
						c-2.8,0-5.5,1.1-7.5,3c-2.1,1.9-3.3,4.6-3.6,7.4c-0.2,3,0.7,5.9,2.6,8.2c0.4,0.5,0.8,0.9,1.3,1.3c-1.5,0.7-3,1.7-4.4,2.9
						c-1.3-2.8-2.8-5.1-4.7-6.8c-0.6-0.6-1.3-1.2-2-1.7c0.3-0.2,0.6-0.5,0.9-0.8c2.1-1.9,3.3-4.6,3.6-7.4c0.2-3-0.7-5.9-2.6-8.2
						c-1.9-2.3-4.6-3.7-7.6-4c-0.3,0-0.6,0-0.9,0c-2.8,0-5.5,1.1-7.5,3c-2.1,1.9-3.3,4.6-3.6,7.4c-0.2,3,0.7,5.9,2.6,8.2
						c0.6,0.7,1.3,1.4,2,1.9c-2.6,1.8-4.9,4.7-6.8,8.6c-1.5-1.3-3.1-2.4-4.7-3.1c0.1-0.1,0.2-0.2,0.4-0.3c2.1-1.9,3.3-4.6,3.6-7.4
						c0.2-3-0.7-5.9-2.6-8.2c-1.9-2.3-4.6-3.7-7.6-4c-0.3,0-0.6,0-0.9,0c-2.8,0-5.5,1.1-7.5,3c-2.1,1.9-3.3,4.6-3.6,7.4
						c-0.2,3,0.7,5.9,2.6,8.2c0.4,0.5,0.8,0.9,1.3,1.3c-1.5,0.7-4.1,2.3-5.2,3.7v5.2c0.6,0,1.1-0.2,1.6-0.7
						c3.2-3.4,6.6-5.3,10.1-5.5c0.3,0,1.3,0,1.6,0c3.5,0.2,6.9,2.1,10.1,5.5c0.7,0.8,1.9,0.9,2.8,0.3c0.5-0.2,0.9-0.6,1.1-1.1
						c1.5-3.6,3.3-6.5,5.3-8.3c1.7-1.6,3.6-2.4,5.4-2.3c3.9,0.1,7.6,3.9,10,10.3c0.1,0.5,0.3,0.9,0.7,1.3c0.4,0.4,0.9,0.6,1.5,0.6
						c0.6,0,1.1-0.2,1.6-0.7c3.2-3.4,6.6-5.3,10.1-5.5c0.3,0,0.5,0,0.8,0c0.3,0,0.5,0,0.8,0c3.5,0.2,6.9,2.1,10.1,5.5
						c0.8,0.9,2.2,0.9,3,0.1c0.3-0.3,0.5-0.6,0.6-0.9c0,0,0,0,0,0c1.5-3.6,3.3-6.5,5.3-8.3c1.7-1.6,3.6-2.4,5.4-2.3
						c3.9,0.1,7.6,3.9,10,10.3c0.1,0.5,0.3,0.9,0.7,1.3c0.4,0.4,0.9,0.6,1.5,0.6c0.6,0,1.1-0.2,1.6-0.7c3.2-3.4,6.6-5.3,10.1-5.5
						c0.3,0,1.3,0,1.6,0c3.5,0.2,6.9,2.1,10.1,5.5c0.8,0.9,2.2,0.9,3,0.1C265.1,32.5,265.1,31.2,264.3,30.3"/>
				</g>
			</g>
			<g id="Page-1_3_" transform="translate(201.000000, 0.000000)" sketch:type="MSShapeGroup">
				<g id="Group-6_3_">
					<path id="Fill-4_3_" class="st0" d="M257.1,17.1c-0.3,3.4-2.9,6-6.1,6.4c-0.2,0-1.2,0-1.4,0c-1.7-0.2-3.3-1-4.4-2.4
						c-1.2-1.4-1.7-3.2-1.6-5.1c0.3-3.6,3.3-6.4,6.8-6.4c0.2,0,0.4,0,0.5,0c1.8,0.1,3.4,1,4.6,2.4C256.7,13.4,257.2,15.2,257.1,17.1
						 M225.5,17.5c-0.2,0-0.4,0-0.5,0c-1.8-0.1-3.4-1-4.6-2.4c-1.2-1.4-1.7-3.2-1.6-5.1c0.3-3.6,3.3-6.4,6.8-6.4c0.2,0,0.4,0,0.5,0
						c1.8,0.1,3.4,1,4.6,2.4c1.2,1.4,1.7,3.2,1.6,5.1C232,14.7,229,17.5,225.5,17.5 M207.3,17.1c-0.3,3.4-2.9,6-6.1,6.4
						c-0.2,0-1.2,0-1.4,0c-1.7-0.2-3.3-1-4.4-2.4c-1.2-1.4-1.7-3.2-1.6-5.1c0.3-3.6,3.3-6.4,6.8-6.4c0.2,0,0.4,0,0.5,0
						c1.8,0.1,3.4,1,4.6,2.4C206.9,13.4,207.5,15.2,207.3,17.1 M175.8,17.5c-0.2,0-0.4,0-0.5,0c-1.8-0.1-3.4-1-4.6-2.4
						c-1.2-1.4-1.7-3.2-1.6-5.1c0.3-3.6,3.3-6.4,6.8-6.4c0.2,0,0.4,0,0.5,0c1.8,0.1,3.4,1,4.6,2.4c1.2,1.4,1.7,3.2,1.6,5.1
						C182.2,14.7,179.3,17.5,175.8,17.5 M157.4,17.1c-0.3,3.4-2.9,6-6.1,6.4c-0.2,0-1.2,0-1.4,0c-1.7-0.2-3.3-1-4.4-2.4
						c-1.2-1.4-1.7-3.2-1.6-5.1c0.3-3.6,3.3-6.4,6.8-6.4c0.2,0,0.4,0,0.5,0c1.8,0.1,3.4,1,4.6,2.4C157,13.4,157.5,15.2,157.4,17.1
						 M264.3,30.3c-2.2-2.3-4.5-4-6.9-5.2c0.1-0.1,0.2-0.2,0.4-0.3c2.1-1.9,3.3-4.6,3.6-7.4c0.2-3-0.7-5.9-2.6-8.2
						c-1.9-2.3-4.6-3.7-7.6-4c-0.3,0-0.6,0-0.9,0c-2.8,0-5.5,1.1-7.5,3c-2.1,1.9-3.3,4.6-3.6,7.4c-0.2,3,0.7,5.9,2.6,8.2
						c0.4,0.5,0.8,0.9,1.3,1.3c-1.5,0.7-3,1.7-4.4,2.9c-1.3-2.8-2.8-5.1-4.7-6.8c-0.6-0.6-1.3-1.2-2-1.7c0.3-0.2,0.6-0.5,0.9-0.8
						c2.1-1.9,3.3-4.6,3.6-7.4c0.2-3-0.7-5.9-2.6-8.2c-1.9-2.3-4.6-3.7-7.6-4c-0.3,0-0.6,0-0.9,0c-2.8,0-5.5,1.1-7.5,3
						c-2.1,1.9-3.3,4.6-3.6,7.4c-0.2,3,0.7,5.9,2.6,8.2c0.6,0.7,1.3,1.4,2,1.9c-2.6,1.8-4.9,4.7-6.8,8.4c-1.5-1.2-3-2.2-4.6-3
						c0.1-0.1,0.2-0.2,0.4-0.3c2.1-1.9,3.3-4.6,3.6-7.4c0.2-3-0.7-5.9-2.6-8.2c-1.9-2.3-4.6-3.7-7.6-4c-0.3,0-0.6,0-0.9,0
						c-2.8,0-5.5,1.1-7.5,3c-2.1,1.9-3.3,4.6-3.6,7.4c-0.2,3,0.7,5.9,2.6,8.2c0.4,0.5,0.8,0.9,1.3,1.3c-1.5,0.7-3,1.7-4.4,2.9
						c-1.3-2.8-2.8-5.1-4.7-6.8c-0.6-0.6-1.3-1.2-2-1.7c0.3-0.2,0.6-0.5,0.9-0.8c2.1-1.9,3.3-4.6,3.6-7.4c0.2-3-0.7-5.9-2.6-8.2
						c-1.9-2.3-4.6-3.7-7.6-4c-0.3,0-0.6,0-0.9,0c-2.8,0-5.5,1.1-7.5,3c-2.1,1.9-3.3,4.6-3.6,7.4c-0.2,3,0.7,5.9,2.6,8.2
						c0.6,0.7,1.3,1.4,2,1.9c-2.6,1.8-4.9,4.7-6.8,8.6c-1.5-1.3-3.1-2.4-4.7-3.1c0.1-0.1,0.2-0.2,0.4-0.3c2.1-1.9,3.3-4.6,3.6-7.4
						c0.2-3-0.7-5.9-2.6-8.2c-1.9-2.3-4.6-3.7-7.6-4c-0.3,0-0.6,0-0.9,0c-2.8,0-5.5,1.1-7.5,3c-2.1,1.9-3.3,4.6-3.6,7.4
						c-0.2,3,0.7,5.9,2.6,8.2c0.4,0.5,0.8,0.9,1.3,1.3c-1.5,0.7-4.1,2.3-5.2,3.7v5.2c0.6,0,1.1-0.2,1.6-0.7
						c3.2-3.4,6.6-5.3,10.1-5.5c0.3,0,1.3,0,1.6,0c3.5,0.2,6.9,2.1,10.1,5.5c0.7,0.8,1.9,0.9,2.8,0.3c0.5-0.2,0.9-0.6,1.1-1.1
						c1.5-3.6,3.3-6.5,5.3-8.3c1.7-1.6,3.6-2.4,5.4-2.3c3.9,0.1,7.6,3.9,10,10.3c0.1,0.5,0.3,0.9,0.7,1.3c0.4,0.4,0.9,0.6,1.5,0.6
						c0.6,0,1.1-0.2,1.6-0.7c3.2-3.4,6.6-5.3,10.1-5.5c0.3,0,0.5,0,0.8,0c0.3,0,0.5,0,0.8,0c3.5,0.2,6.9,2.1,10.1,5.5
						c0.8,0.9,2.2,0.9,3,0.1c0.3-0.3,0.5-0.6,0.6-0.9c0,0,0,0,0,0c1.5-3.6,3.3-6.5,5.3-8.3c1.7-1.6,3.6-2.4,5.4-2.3
						c3.9,0.1,7.6,3.9,10,10.3c0.1,0.5,0.3,0.9,0.7,1.3c0.4,0.4,0.9,0.6,1.5,0.6c0.6,0,1.1-0.2,1.6-0.7c3.2-3.4,6.6-5.3,10.1-5.5
						c0.3,0,1.3,0,1.6,0c3.5,0.2,6.9,2.1,10.1,5.5c0.8,0.9,2.2,0.9,3,0.1C265.1,32.5,265.1,31.2,264.3,30.3"/>
				</g>
			</g>
			<g id="Page-1_4_" transform="translate(100.000000, 34.000000)" sketch:type="MSShapeGroup">
				<g id="Group-3_2_">
					<path id="Fill-1_2_" class="st0" d="M145.8,10.3c0.3-3.6,3.3-6.4,6.8-6.4c0.2,0,0.4,0,0.5,0c1.8,0.1,3.4,1,4.6,2.4
						c1.2,1.4,1.7,3.2,1.6,5.1c-0.3,3.6-3.3,6.4-6.8,6.4c-0.2,0-0.4,0-0.5,0c-1.8-0.1-3.4-1-4.6-2.4C146.3,14,145.7,12.2,145.8,10.3
						 M170.7,16.3c0.3-3.6,3.3-6.4,6.8-6.4c0.2,0,0.4,0,0.5,0c1.8,0.1,3.4,1,4.6,2.4c1.2,1.4,1.7,3.2,1.6,5.1
						c-0.3,3.4-2.9,6-6.1,6.4c-0.2,0-0.5,0-0.7,0c-0.2,0-0.5,0-0.7,0c-1.7-0.2-3.3-1-4.4-2.4C171.1,20,170.5,18.2,170.7,16.3
						 M195.5,10.3c0.3-3.6,3.3-6.4,6.8-6.4c0.2,0,0.4,0,0.5,0c1.8,0.1,3.4,1,4.6,2.4c1.2,1.4,1.7,3.2,1.6,5.1
						c-0.3,3.6-3.3,6.4-6.8,6.4c-0.2,0-0.4,0-0.5,0c-1.8-0.1-3.4-1-4.6-2.4C195.9,14,195.3,12.2,195.5,10.3 M220.3,16.3
						c0.3-3.6,3.3-6.4,6.8-6.4c0.2,0,0.4,0,0.5,0c1.8,0.1,3.4,1,4.6,2.4c1.2,1.4,1.7,3.2,1.6,5.1c-0.3,3.4-2.9,6-6.1,6.4
						c-0.2,0-0.5,0-0.7,0c-0.2,0-0.5,0-0.7,0c-1.7-0.2-3.3-1-4.4-2.4C220.7,20,220.1,18.2,220.3,16.3 M245.5,10.3
						c0.3-3.6,3.3-6.4,6.8-6.4c0.2,0,0.4,0,0.5,0c1.8,0.1,3.4,1,4.6,2.4c1.2,1.4,1.7,3.2,1.6,5.1c-0.3,3.6-3.3,6.4-6.8,6.4
						c-0.2,0-0.4,0-0.5,0c-1.8-0.1-3.4-1-4.6-2.4C245.9,14,245.3,12.2,245.5,10.3 M139.3,34c1.1,0.5,2.4-0.1,2.8-1.2
						c1.5-3.6,3.3-6.5,5.3-8.3c1.7-1.6,3.6-2.4,5.4-2.3c3.9,0.1,7.6,3.9,10,10.3c0.1,0.5,0.3,0.9,0.7,1.3c0.4,0.4,0.9,0.6,1.5,0.6
						c0.6,0,1.1-0.2,1.6-0.7c3.2-3.4,6.6-5.3,10.1-5.5c0.3,0,0.5,0,0.8,0c0.3,0,0.5,0,0.8,0c3.5,0.2,6.9,2.1,10.1,5.5
						c0.8,0.9,2.2,0.9,3,0.1c0.4-0.4,0.6-0.9,0.7-1.3c1.4-3.4,3.2-6.1,5.2-7.9c1.7-1.6,3.6-2.4,5.4-2.3c3.9,0.1,7.6,3.9,10,10.3
						c0.1,0.5,0.3,0.9,0.7,1.3c0.4,0.4,0.9,0.6,1.5,0.6c0.6,0,1.1-0.2,1.6-0.7c3.2-3.4,6.6-5.3,10.1-5.5c0.3,0,0.5,0,0.8,0
						c0.3,0,0.5,0,0.8,0c3.5,0.2,6.9,2.1,10.1,5.5c0.7,0.8,1.8,0.9,2.7,0.4c0.5-0.2,1-0.6,1.2-1.2c1.5-3.6,3.3-6.5,5.3-8.3
						c1.7-1.6,3.6-2.4,5.4-2.3c6.2,0.2,11.7,11,12.1,12.2l0,0v-7.6c-1.1-2-2.4-3.7-3.8-5.1c-0.6-0.6-1.3-1.2-2-1.7
						c0.3-0.2,0.6-0.5,0.9-0.8c2.1-1.9,3.3-4.6,3.6-7.4c0.2-3-0.7-5.9-2.6-8.2c-1.9-2.3-4.6-3.7-7.6-4c-0.3,0-0.6,0-0.9,0
						c-2.8,0-5.5,1.1-7.5,3c-2.1,1.9-3.3,4.6-3.6,7.4c-0.2,3,0.7,5.9,2.6,8.2c0.6,0.7,1.3,1.4,2,1.9c-2.6,1.8-4.9,4.7-6.8,8.6
						c-1.5-1.3-3.1-2.4-4.7-3.2c0.1-0.1,0.2-0.2,0.4-0.3c2.1-1.9,3.3-4.6,3.6-7.4c0.2-3-0.7-5.9-2.6-8.2c-1.9-2.3-4.6-3.7-7.6-4
						c-0.3,0-0.6,0-0.9,0c-2.8,0-5.5,1.1-7.5,3c-2.1,1.9-3.3,4.6-3.6,7.4c-0.2,3,0.7,5.9,2.6,8.2c0.4,0.5,0.8,0.9,1.3,1.3
						c-1.5,0.7-3,1.7-4.4,2.9c-1.3-2.8-2.8-5.1-4.7-6.8c-0.6-0.6-1.3-1.2-2-1.7c0.3-0.2,0.6-0.5,0.9-0.8c2.1-1.9,3.3-4.6,3.6-7.4
						c0.2-3-0.7-5.9-2.6-8.2c-1.9-2.3-4.6-3.7-7.6-4c-0.3,0-0.6,0-0.9,0c-2.8,0-5.5,1.1-7.5,3c-2.1,1.9-3.3,4.6-3.6,7.4
						c-0.2,3,0.7,5.9,2.6,8.2c0.6,0.7,1.3,1.4,2,1.9c-2.6,1.8-4.8,4.6-6.7,8.4c-1.5-1.2-3-2.2-4.5-2.9c0.1-0.1,0.2-0.2,0.4-0.3
						c2.1-1.9,3.3-4.6,3.6-7.4c0.2-3-0.7-5.9-2.6-8.2c-1.9-2.3-4.6-3.7-7.6-4c-0.3,0-0.6,0-0.9,0c-2.8,0-5.5,1.1-7.5,3
						c-2.1,1.9-3.3,4.6-3.6,7.4c-0.2,3,0.7,5.9,2.6,8.2c0.4,0.5,0.8,0.9,1.3,1.3c-1.5,0.7-3,1.7-4.4,2.9c-1.3-2.8-2.8-5.1-4.7-6.8
						c-0.6-0.6-1.3-1.2-2-1.7c0.3-0.2,0.6-0.5,0.9-0.8c2.1-1.9,3.3-4.6,3.6-7.4c0.2-3-0.7-5.9-2.6-8.2c-1.9-2.3-4.6-3.7-7.6-4
						c-0.3,0-0.6,0-0.9,0c-2.8,0-5.5,1.1-7.5,3c-2.1,1.9-3.3,4.6-3.6,7.4c-0.2,3,0.7,5.9,2.6,8.2c0.6,0.7,1.3,1.4,2,1.9
						c-3.1,2.2-5.9,6-8,11.1C137.7,32.3,138.2,33.6,139.3,34"/>
				</g>
				<g id="Group-6_4_" transform="translate(1.000000, 34.000000)">
					<path id="Fill-4_4_" class="st0" d="M257.1,17.1c-0.3,3.4-2.9,6-6.1,6.4c-0.2,0-1.2,0-1.4,0c-1.7-0.2-3.3-1-4.4-2.4
						c-1.2-1.4-1.7-3.2-1.6-5.1c0.3-3.6,3.3-6.4,6.8-6.4c0.2,0,0.4,0,0.5,0c1.8,0.1,3.4,1,4.6,2.4C256.7,13.4,257.2,15.2,257.1,17.1
						 M225.5,17.5c-0.2,0-0.4,0-0.5,0c-1.8-0.1-3.4-1-4.6-2.4c-1.2-1.4-1.7-3.2-1.6-5.1c0.3-3.6,3.3-6.4,6.8-6.4c0.2,0,0.4,0,0.5,0
						c1.8,0.1,3.4,1,4.6,2.4c1.2,1.4,1.7,3.2,1.6,5.1C232,14.7,229,17.5,225.5,17.5 M207.3,17.1c-0.3,3.4-2.9,6-6.1,6.4
						c-0.2,0-1.2,0-1.4,0c-1.7-0.2-3.3-1-4.4-2.4c-1.2-1.4-1.7-3.2-1.6-5.1c0.3-3.6,3.3-6.4,6.8-6.4c0.2,0,0.4,0,0.5,0
						c1.8,0.1,3.4,1,4.6,2.4C206.9,13.4,207.5,15.2,207.3,17.1 M175.8,17.5c-0.2,0-0.4,0-0.5,0c-1.8-0.1-3.4-1-4.6-2.4
						c-1.2-1.4-1.7-3.2-1.6-5.1c0.3-3.6,3.3-6.4,6.8-6.4c0.2,0,0.4,0,0.5,0c1.8,0.1,3.4,1,4.6,2.4c1.2,1.4,1.7,3.2,1.6,5.1
						C182.2,14.7,179.3,17.5,175.8,17.5 M157.4,17.1c-0.3,3.4-2.9,6-6.1,6.4c-0.2,0-1.2,0-1.4,0c-1.7-0.2-3.3-1-4.4-2.4
						c-1.2-1.4-1.7-3.2-1.6-5.1c0.3-3.6,3.3-6.4,6.8-6.4c0.2,0,0.4,0,0.5,0c1.8,0.1,3.4,1,4.6,2.4C157,13.4,157.5,15.2,157.4,17.1
						 M264.3,30.3c-2.2-2.3-4.5-4-6.9-5.2c0.1-0.1,0.2-0.2,0.4-0.3c2.1-1.9,3.3-4.6,3.6-7.4c0.2-3-0.7-5.9-2.6-8.2
						c-1.9-2.3-4.6-3.7-7.6-4c-0.3,0-0.6,0-0.9,0c-2.8,0-5.5,1.1-7.5,3c-2.1,1.9-3.3,4.6-3.6,7.4c-0.2,3,0.7,5.9,2.6,8.2
						c0.4,0.5,0.8,0.9,1.3,1.3c-1.5,0.7-3,1.7-4.4,2.9c-1.3-2.8-2.8-5.1-4.7-6.8c-0.6-0.6-1.3-1.2-2-1.7c0.3-0.2,0.6-0.5,0.9-0.8
						c2.1-1.9,3.3-4.6,3.6-7.4c0.2-3-0.7-5.9-2.6-8.2c-1.9-2.3-4.6-3.7-7.6-4c-0.3,0-0.6,0-0.9,0c-2.8,0-5.5,1.1-7.5,3
						c-2.1,1.9-3.3,4.6-3.6,7.4c-0.2,3,0.7,5.9,2.6,8.2c0.6,0.7,1.3,1.4,2,1.9c-2.6,1.8-4.9,4.7-6.8,8.4c-1.5-1.2-3-2.2-4.6-3
						c0.1-0.1,0.2-0.2,0.4-0.3c2.1-1.9,3.3-4.6,3.6-7.4c0.2-3-0.7-5.9-2.6-8.2c-1.9-2.3-4.6-3.7-7.6-4c-0.3,0-0.6,0-0.9,0
						c-2.8,0-5.5,1.1-7.5,3c-2.1,1.9-3.3,4.6-3.6,7.4c-0.2,3,0.7,5.9,2.6,8.2c0.4,0.5,0.8,0.9,1.3,1.3c-1.5,0.7-3,1.7-4.4,2.9
						c-1.3-2.8-2.8-5.1-4.7-6.8c-0.6-0.6-1.3-1.2-2-1.7c0.3-0.2,0.6-0.5,0.9-0.8c2.1-1.9,3.3-4.6,3.6-7.4c0.2-3-0.7-5.9-2.6-8.2
						c-1.9-2.3-4.6-3.7-7.6-4c-0.3,0-0.6,0-0.9,0c-2.8,0-5.5,1.1-7.5,3c-2.1,1.9-3.3,4.6-3.6,7.4c-0.2,3,0.7,5.9,2.6,8.2
						c0.6,0.7,1.3,1.4,2,1.9c-2.6,1.8-4.9,4.7-6.8,8.6c-1.5-1.3-3.1-2.4-4.7-3.1c0.1-0.1,0.2-0.2,0.4-0.3c2.1-1.9,3.3-4.6,3.6-7.4
						c0.2-3-0.7-5.9-2.6-8.2c-1.9-2.3-4.6-3.7-7.6-4c-0.3,0-0.6,0-0.9,0c-2.8,0-5.5,1.1-7.5,3c-2.1,1.9-3.3,4.6-3.6,7.4
						c-0.2,3,0.7,5.9,2.6,8.2c0.4,0.5,0.8,0.9,1.3,1.3c-1.5,0.7-4.1,2.3-5.2,3.7v5.2c0.6,0,1.1-0.2,1.6-0.7
						c3.2-3.4,6.6-5.3,10.1-5.5c0.3,0,1.3,0,1.6,0c3.5,0.2,6.9,2.1,10.1,5.5c0.7,0.8,1.9,0.9,2.8,0.3c0.5-0.2,0.9-0.6,1.1-1.1
						c1.5-3.6,3.3-6.5,5.3-8.3c1.7-1.6,3.6-2.4,5.4-2.3c3.9,0.1,7.6,3.9,10,10.3c0.1,0.5,0.3,0.9,0.7,1.3c0.4,0.4,0.9,0.6,1.5,0.6
						c0.6,0,1.1-0.2,1.6-0.7c3.2-3.4,6.6-5.3,10.1-5.5c0.3,0,0.5,0,0.8,0c0.3,0,0.5,0,0.8,0c3.5,0.2,6.9,2.1,10.1,5.5
						c0.8,0.9,2.2,0.9,3,0.1c0.3-0.3,0.5-0.6,0.6-0.9c0,0,0,0,0,0c1.5-3.6,3.3-6.5,5.3-8.3c1.7-1.6,3.6-2.4,5.4-2.3
						c3.9,0.1,7.6,3.9,10,10.3c0.1,0.5,0.3,0.9,0.7,1.3c0.4,0.4,0.9,0.6,1.5,0.6c0.6,0,1.1-0.2,1.6-0.7c3.2-3.4,6.6-5.3,10.1-5.5
						c0.3,0,1.3,0,1.6,0c3.5,0.2,6.9,2.1,10.1,5.5c0.8,0.9,2.2,0.9,3,0.1C265.1,32.5,265.1,31.2,264.3,30.3"/>
				</g>
			</g>
			<g id="Page-1_5_" transform="translate(0.000000, 34.000000)" sketch:type="MSShapeGroup">
				<g id="Group-3_3_">
					<path id="Fill-1_3_" class="st0" d="M145.8,10.3c0.3-3.6,3.3-6.4,6.8-6.4c0.2,0,0.4,0,0.5,0c1.8,0.1,3.4,1,4.6,2.4
						c1.2,1.4,1.7,3.2,1.6,5.1c-0.3,3.6-3.3,6.4-6.8,6.4c-0.2,0-0.4,0-0.5,0c-1.8-0.1-3.4-1-4.6-2.4C146.3,14,145.7,12.2,145.8,10.3
						 M170.7,16.3c0.3-3.6,3.3-6.4,6.8-6.4c0.2,0,0.4,0,0.5,0c1.8,0.1,3.4,1,4.6,2.4c1.2,1.4,1.7,3.2,1.6,5.1
						c-0.3,3.4-2.9,6-6.1,6.4c-0.2,0-0.5,0-0.7,0c-0.2,0-0.5,0-0.7,0c-1.7-0.2-3.3-1-4.4-2.4C171.1,20,170.5,18.2,170.7,16.3
						 M195.5,10.3c0.3-3.6,3.3-6.4,6.8-6.4c0.2,0,0.4,0,0.5,0c1.8,0.1,3.4,1,4.6,2.4c1.2,1.4,1.7,3.2,1.6,5.1
						c-0.3,3.6-3.3,6.4-6.8,6.4c-0.2,0-0.4,0-0.5,0c-1.8-0.1-3.4-1-4.6-2.4C195.9,14,195.3,12.2,195.5,10.3 M220.3,16.3
						c0.3-3.6,3.3-6.4,6.8-6.4c0.2,0,0.4,0,0.5,0c1.8,0.1,3.4,1,4.6,2.4c1.2,1.4,1.7,3.2,1.6,5.1c-0.3,3.4-2.9,6-6.1,6.4
						c-0.2,0-0.5,0-0.7,0c-0.2,0-0.5,0-0.7,0c-1.7-0.2-3.3-1-4.4-2.4C220.7,20,220.1,18.2,220.3,16.3 M245.5,10.3
						c0.3-3.6,3.3-6.4,6.8-6.4c0.2,0,0.4,0,0.5,0c1.8,0.1,3.4,1,4.6,2.4c1.2,1.4,1.7,3.2,1.6,5.1c-0.3,3.6-3.3,6.4-6.8,6.4
						c-0.2,0-0.4,0-0.5,0c-1.8-0.1-3.4-1-4.6-2.4C245.9,14,245.3,12.2,245.5,10.3 M139.3,34c1.1,0.5,2.4-0.1,2.8-1.2
						c1.5-3.6,3.3-6.5,5.3-8.3c1.7-1.6,3.6-2.4,5.4-2.3c3.9,0.1,7.6,3.9,10,10.3c0.1,0.5,0.3,0.9,0.7,1.3c0.4,0.4,0.9,0.6,1.5,0.6
						c0.6,0,1.1-0.2,1.6-0.7c3.2-3.4,6.6-5.3,10.1-5.5c0.3,0,0.5,0,0.8,0c0.3,0,0.5,0,0.8,0c3.5,0.2,6.9,2.1,10.1,5.5
						c0.8,0.9,2.2,0.9,3,0.1c0.4-0.4,0.6-0.9,0.7-1.3c1.4-3.4,3.2-6.1,5.2-7.9c1.7-1.6,3.6-2.4,5.4-2.3c3.9,0.1,7.6,3.9,10,10.3
						c0.1,0.5,0.3,0.9,0.7,1.3c0.4,0.4,0.9,0.6,1.5,0.6c0.6,0,1.1-0.2,1.6-0.7c3.2-3.4,6.6-5.3,10.1-5.5c0.3,0,0.5,0,0.8,0
						c0.3,0,0.5,0,0.8,0c3.5,0.2,6.9,2.1,10.1,5.5c0.7,0.8,1.8,0.9,2.7,0.4c0.5-0.2,1-0.6,1.2-1.2c1.5-3.6,3.3-6.5,5.3-8.3
						c1.7-1.6,3.6-2.4,5.4-2.3c6.2,0.2,11.7,11,12.1,12.2l0,0v-7.6c-1.1-2-2.4-3.7-3.8-5.1c-0.6-0.6-1.3-1.2-2-1.7
						c0.3-0.2,0.6-0.5,0.9-0.8c2.1-1.9,3.3-4.6,3.6-7.4c0.2-3-0.7-5.9-2.6-8.2c-1.9-2.3-4.6-3.7-7.6-4c-0.3,0-0.6,0-0.9,0
						c-2.8,0-5.5,1.1-7.5,3c-2.1,1.9-3.3,4.6-3.6,7.4c-0.2,3,0.7,5.9,2.6,8.2c0.6,0.7,1.3,1.4,2,1.9c-2.6,1.8-4.9,4.7-6.8,8.6
						c-1.5-1.3-3.1-2.4-4.7-3.2c0.1-0.1,0.2-0.2,0.4-0.3c2.1-1.9,3.3-4.6,3.6-7.4c0.2-3-0.7-5.9-2.6-8.2c-1.9-2.3-4.6-3.7-7.6-4
						c-0.3,0-0.6,0-0.9,0c-2.8,0-5.5,1.1-7.5,3c-2.1,1.9-3.3,4.6-3.6,7.4c-0.2,3,0.7,5.9,2.6,8.2c0.4,0.5,0.8,0.9,1.3,1.3
						c-1.5,0.7-3,1.7-4.4,2.9c-1.3-2.8-2.8-5.1-4.7-6.8c-0.6-0.6-1.3-1.2-2-1.7c0.3-0.2,0.6-0.5,0.9-0.8c2.1-1.9,3.3-4.6,3.6-7.4
						c0.2-3-0.7-5.9-2.6-8.2c-1.9-2.3-4.6-3.7-7.6-4c-0.3,0-0.6,0-0.9,0c-2.8,0-5.5,1.1-7.5,3c-2.1,1.9-3.3,4.6-3.6,7.4
						c-0.2,3,0.7,5.9,2.6,8.2c0.6,0.7,1.3,1.4,2,1.9c-2.6,1.8-4.8,4.6-6.7,8.4c-1.5-1.2-3-2.2-4.5-2.9c0.1-0.1,0.2-0.2,0.4-0.3
						c2.1-1.9,3.3-4.6,3.6-7.4c0.2-3-0.7-5.9-2.6-8.2c-1.9-2.3-4.6-3.7-7.6-4c-0.3,0-0.6,0-0.9,0c-2.8,0-5.5,1.1-7.5,3
						c-2.1,1.9-3.3,4.6-3.6,7.4c-0.2,3,0.7,5.9,2.6,8.2c0.4,0.5,0.8,0.9,1.3,1.3c-1.5,0.7-3,1.7-4.4,2.9c-1.3-2.8-2.8-5.1-4.7-6.8
						c-0.6-0.6-1.3-1.2-2-1.7c0.3-0.2,0.6-0.5,0.9-0.8c2.1-1.9,3.3-4.6,3.6-7.4c0.2-3-0.7-5.9-2.6-8.2c-1.9-2.3-4.6-3.7-7.6-4
						c-0.3,0-0.6,0-0.9,0c-2.8,0-5.5,1.1-7.5,3c-2.1,1.9-3.3,4.6-3.6,7.4c-0.2,3,0.7,5.9,2.6,8.2c0.6,0.7,1.3,1.4,2,1.9
						c-3.1,2.2-5.9,6-8,11.1C137.7,32.3,138.2,33.6,139.3,34"/>
				</g>
				<g id="Group-6_5_" transform="translate(1.000000, 34.000000)">
					<path id="Fill-4_5_" class="st0" d="M257.1,17.1c-0.3,3.4-2.9,6-6.1,6.4c-0.2,0-1.2,0-1.4,0c-1.7-0.2-3.3-1-4.4-2.4
						c-1.2-1.4-1.7-3.2-1.6-5.1c0.3-3.6,3.3-6.4,6.8-6.4c0.2,0,0.4,0,0.5,0c1.8,0.1,3.4,1,4.6,2.4C256.7,13.4,257.2,15.2,257.1,17.1
						 M225.5,17.5c-0.2,0-0.4,0-0.5,0c-1.8-0.1-3.4-1-4.6-2.4c-1.2-1.4-1.7-3.2-1.6-5.1c0.3-3.6,3.3-6.4,6.8-6.4c0.2,0,0.4,0,0.5,0
						c1.8,0.1,3.4,1,4.6,2.4c1.2,1.4,1.7,3.2,1.6,5.1C232,14.7,229,17.5,225.5,17.5 M207.3,17.1c-0.3,3.4-2.9,6-6.1,6.4
						c-0.2,0-1.2,0-1.4,0c-1.7-0.2-3.3-1-4.4-2.4c-1.2-1.4-1.7-3.2-1.6-5.1c0.3-3.6,3.3-6.4,6.8-6.4c0.2,0,0.4,0,0.5,0
						c1.8,0.1,3.4,1,4.6,2.4C206.9,13.4,207.5,15.2,207.3,17.1 M175.8,17.5c-0.2,0-0.4,0-0.5,0c-1.8-0.1-3.4-1-4.6-2.4
						c-1.2-1.4-1.7-3.2-1.6-5.1c0.3-3.6,3.3-6.4,6.8-6.4c0.2,0,0.4,0,0.5,0c1.8,0.1,3.4,1,4.6,2.4c1.2,1.4,1.7,3.2,1.6,5.1
						C182.2,14.7,179.3,17.5,175.8,17.5 M157.4,17.1c-0.3,3.4-2.9,6-6.1,6.4c-0.2,0-1.2,0-1.4,0c-1.7-0.2-3.3-1-4.4-2.4
						c-1.2-1.4-1.7-3.2-1.6-5.1c0.3-3.6,3.3-6.4,6.8-6.4c0.2,0,0.4,0,0.5,0c1.8,0.1,3.4,1,4.6,2.4C157,13.4,157.5,15.2,157.4,17.1
						 M264.3,30.3c-2.2-2.3-4.5-4-6.9-5.2c0.1-0.1,0.2-0.2,0.4-0.3c2.1-1.9,3.3-4.6,3.6-7.4c0.2-3-0.7-5.9-2.6-8.2
						c-1.9-2.3-4.6-3.7-7.6-4c-0.3,0-0.6,0-0.9,0c-2.8,0-5.5,1.1-7.5,3c-2.1,1.9-3.3,4.6-3.6,7.4c-0.2,3,0.7,5.9,2.6,8.2
						c0.4,0.5,0.8,0.9,1.3,1.3c-1.5,0.7-3,1.7-4.4,2.9c-1.3-2.8-2.8-5.1-4.7-6.8c-0.6-0.6-1.3-1.2-2-1.7c0.3-0.2,0.6-0.5,0.9-0.8
						c2.1-1.9,3.3-4.6,3.6-7.4c0.2-3-0.7-5.9-2.6-8.2c-1.9-2.3-4.6-3.7-7.6-4c-0.3,0-0.6,0-0.9,0c-2.8,0-5.5,1.1-7.5,3
						c-2.1,1.9-3.3,4.6-3.6,7.4c-0.2,3,0.7,5.9,2.6,8.2c0.6,0.7,1.3,1.4,2,1.9c-2.6,1.8-4.9,4.7-6.8,8.4c-1.5-1.2-3-2.2-4.6-3
						c0.1-0.1,0.2-0.2,0.4-0.3c2.1-1.9,3.3-4.6,3.6-7.4c0.2-3-0.7-5.9-2.6-8.2c-1.9-2.3-4.6-3.7-7.6-4c-0.3,0-0.6,0-0.9,0
						c-2.8,0-5.5,1.1-7.5,3c-2.1,1.9-3.3,4.6-3.6,7.4c-0.2,3,0.7,5.9,2.6,8.2c0.4,0.5,0.8,0.9,1.3,1.3c-1.5,0.7-3,1.7-4.4,2.9
						c-1.3-2.8-2.8-5.1-4.7-6.8c-0.6-0.6-1.3-1.2-2-1.7c0.3-0.2,0.6-0.5,0.9-0.8c2.1-1.9,3.3-4.6,3.6-7.4c0.2-3-0.7-5.9-2.6-8.2
						c-1.9-2.3-4.6-3.7-7.6-4c-0.3,0-0.6,0-0.9,0c-2.8,0-5.5,1.1-7.5,3c-2.1,1.9-3.3,4.6-3.6,7.4c-0.2,3,0.7,5.9,2.6,8.2
						c0.6,0.7,1.3,1.4,2,1.9c-2.6,1.8-4.9,4.7-6.8,8.6c-1.5-1.3-3.1-2.4-4.7-3.1c0.1-0.1,0.2-0.2,0.4-0.3c2.1-1.9,3.3-4.6,3.6-7.4
						c0.2-3-0.7-5.9-2.6-8.2c-1.9-2.3-4.6-3.7-7.6-4c-0.3,0-0.6,0-0.9,0c-2.8,0-5.5,1.1-7.5,3c-2.1,1.9-3.3,4.6-3.6,7.4
						c-0.2,3,0.7,5.9,2.6,8.2c0.4,0.5,0.8,0.9,1.3,1.3c-1.5,0.7-4.1,2.3-5.2,3.7v5.2c0.6,0,1.1-0.2,1.6-0.7
						c3.2-3.4,6.6-5.3,10.1-5.5c0.3,0,1.3,0,1.6,0c3.5,0.2,6.9,2.1,10.1,5.5c0.7,0.8,1.9,0.9,2.8,0.3c0.5-0.2,0.9-0.6,1.1-1.1
						c1.5-3.6,3.3-6.5,5.3-8.3c1.7-1.6,3.6-2.4,5.4-2.3c3.9,0.1,7.6,3.9,10,10.3c0.1,0.5,0.3,0.9,0.7,1.3c0.4,0.4,0.9,0.6,1.5,0.6
						c0.6,0,1.1-0.2,1.6-0.7c3.2-3.4,6.6-5.3,10.1-5.5c0.3,0,0.5,0,0.8,0c0.3,0,0.5,0,0.8,0c3.5,0.2,6.9,2.1,10.1,5.5
						c0.8,0.9,2.2,0.9,3,0.1c0.3-0.3,0.5-0.6,0.6-0.9c0,0,0,0,0,0c1.5-3.6,3.3-6.5,5.3-8.3c1.7-1.6,3.6-2.4,5.4-2.3
						c3.9,0.1,7.6,3.9,10,10.3c0.1,0.5,0.3,0.9,0.7,1.3c0.4,0.4,0.9,0.6,1.5,0.6c0.6,0,1.1-0.2,1.6-0.7c3.2-3.4,6.6-5.3,10.1-5.5
						c0.3,0,1.3,0,1.6,0c3.5,0.2,6.9,2.1,10.1,5.5c0.8,0.9,2.2,0.9,3,0.1C265.1,32.5,265.1,31.2,264.3,30.3"/>
				</g>
			</g>
			<g id="Page-1_6_" transform="translate(101.000000, 0.000000)" sketch:type="MSShapeGroup">
				<g id="Group-6_6_">
					<path id="Fill-4_6_" class="st0" d="M257.1,17.1c-0.3,3.4-2.9,6-6.1,6.4c-0.2,0-1.2,0-1.4,0c-1.7-0.2-3.3-1-4.4-2.4
						c-1.2-1.4-1.7-3.2-1.6-5.1c0.3-3.6,3.3-6.4,6.8-6.4c0.2,0,0.4,0,0.5,0c1.8,0.1,3.4,1,4.6,2.4C256.7,13.4,257.2,15.2,257.1,17.1
						 M225.5,17.5c-0.2,0-0.4,0-0.5,0c-1.8-0.1-3.4-1-4.6-2.4c-1.2-1.4-1.7-3.2-1.6-5.1c0.3-3.6,3.3-6.4,6.8-6.4c0.2,0,0.4,0,0.5,0
						c1.8,0.1,3.4,1,4.6,2.4c1.2,1.4,1.7,3.2,1.6,5.1C232,14.7,229,17.5,225.5,17.5 M207.3,17.1c-0.3,3.4-2.9,6-6.1,6.4
						c-0.2,0-1.2,0-1.4,0c-1.7-0.2-3.3-1-4.4-2.4c-1.2-1.4-1.7-3.2-1.6-5.1c0.3-3.6,3.3-6.4,6.8-6.4c0.2,0,0.4,0,0.5,0
						c1.8,0.1,3.4,1,4.6,2.4C206.9,13.4,207.5,15.2,207.3,17.1 M175.8,17.5c-0.2,0-0.4,0-0.5,0c-1.8-0.1-3.4-1-4.6-2.4
						c-1.2-1.4-1.7-3.2-1.6-5.1c0.3-3.6,3.3-6.4,6.8-6.4c0.2,0,0.4,0,0.5,0c1.8,0.1,3.4,1,4.6,2.4c1.2,1.4,1.7,3.2,1.6,5.1
						C182.2,14.7,179.3,17.5,175.8,17.5 M157.4,17.1c-0.3,3.4-2.9,6-6.1,6.4c-0.2,0-1.2,0-1.4,0c-1.7-0.2-3.3-1-4.4-2.4
						c-1.2-1.4-1.7-3.2-1.6-5.1c0.3-3.6,3.3-6.4,6.8-6.4c0.2,0,0.4,0,0.5,0c1.8,0.1,3.4,1,4.6,2.4C157,13.4,157.5,15.2,157.4,17.1
						 M264.3,30.3c-2.2-2.3-4.5-4-6.9-5.2c0.1-0.1,0.2-0.2,0.4-0.3c2.1-1.9,3.3-4.6,3.6-7.4c0.2-3-0.7-5.9-2.6-8.2
						c-1.9-2.3-4.6-3.7-7.6-4c-0.3,0-0.6,0-0.9,0c-2.8,0-5.5,1.1-7.5,3c-2.1,1.9-3.3,4.6-3.6,7.4c-0.2,3,0.7,5.9,2.6,8.2
						c0.4,0.5,0.8,0.9,1.3,1.3c-1.5,0.7-3,1.7-4.4,2.9c-1.3-2.8-2.8-5.1-4.7-6.8c-0.6-0.6-1.3-1.2-2-1.7c0.3-0.2,0.6-0.5,0.9-0.8
						c2.1-1.9,3.3-4.6,3.6-7.4c0.2-3-0.7-5.9-2.6-8.2c-1.9-2.3-4.6-3.7-7.6-4c-0.3,0-0.6,0-0.9,0c-2.8,0-5.5,1.1-7.5,3
						c-2.1,1.9-3.3,4.6-3.6,7.4c-0.2,3,0.7,5.9,2.6,8.2c0.6,0.7,1.3,1.4,2,1.9c-2.6,1.8-4.9,4.7-6.8,8.4c-1.5-1.2-3-2.2-4.6-3
						c0.1-0.1,0.2-0.2,0.4-0.3c2.1-1.9,3.3-4.6,3.6-7.4c0.2-3-0.7-5.9-2.6-8.2c-1.9-2.3-4.6-3.7-7.6-4c-0.3,0-0.6,0-0.9,0
						c-2.8,0-5.5,1.1-7.5,3c-2.1,1.9-3.3,4.6-3.6,7.4c-0.2,3,0.7,5.9,2.6,8.2c0.4,0.5,0.8,0.9,1.3,1.3c-1.5,0.7-3,1.7-4.4,2.9
						c-1.3-2.8-2.8-5.1-4.7-6.8c-0.6-0.6-1.3-1.2-2-1.7c0.3-0.2,0.6-0.5,0.9-0.8c2.1-1.9,3.3-4.6,3.6-7.4c0.2-3-0.7-5.9-2.6-8.2
						c-1.9-2.3-4.6-3.7-7.6-4c-0.3,0-0.6,0-0.9,0c-2.8,0-5.5,1.1-7.5,3c-2.1,1.9-3.3,4.6-3.6,7.4c-0.2,3,0.7,5.9,2.6,8.2
						c0.6,0.7,1.3,1.4,2,1.9c-2.6,1.8-4.9,4.7-6.8,8.6c-1.5-1.3-3.1-2.4-4.7-3.1c0.1-0.1,0.2-0.2,0.4-0.3c2.1-1.9,3.3-4.6,3.6-7.4
						c0.2-3-0.7-5.9-2.6-8.2c-1.9-2.3-4.6-3.7-7.6-4c-0.3,0-0.6,0-0.9,0c-2.8,0-5.5,1.1-7.5,3c-2.1,1.9-3.3,4.6-3.6,7.4
						c-0.2,3,0.7,5.9,2.6,8.2c0.4,0.5,0.8,0.9,1.3,1.3c-1.5,0.7-4.1,2.3-5.2,3.7v5.2c0.6,0,1.1-0.2,1.6-0.7
						c3.2-3.4,6.6-5.3,10.1-5.5c0.3,0,1.3,0,1.6,0c3.5,0.2,6.9,2.1,10.1,5.5c0.7,0.8,1.9,0.9,2.8,0.3c0.5-0.2,0.9-0.6,1.1-1.1
						c1.5-3.6,3.3-6.5,5.3-8.3c1.7-1.6,3.6-2.4,5.4-2.3c3.9,0.1,7.6,3.9,10,10.3c0.1,0.5,0.3,0.9,0.7,1.3c0.4,0.4,0.9,0.6,1.5,0.6
						c0.6,0,1.1-0.2,1.6-0.7c3.2-3.4,6.6-5.3,10.1-5.5c0.3,0,0.5,0,0.8,0c0.3,0,0.5,0,0.8,0c3.5,0.2,6.9,2.1,10.1,5.5
						c0.8,0.9,2.2,0.9,3,0.1c0.3-0.3,0.5-0.6,0.6-0.9c0,0,0,0,0,0c1.5-3.6,3.3-6.5,5.3-8.3c1.7-1.6,3.6-2.4,5.4-2.3
						c3.9,0.1,7.6,3.9,10,10.3c0.1,0.5,0.3,0.9,0.7,1.3c0.4,0.4,0.9,0.6,1.5,0.6c0.6,0,1.1-0.2,1.6-0.7c3.2-3.4,6.6-5.3,10.1-5.5
						c0.3,0,1.3,0,1.6,0c3.5,0.2,6.9,2.1,10.1,5.5c0.8,0.9,2.2,0.9,3,0.1C265.1,32.5,265.1,31.2,264.3,30.3"/>
				</g>
			</g>
			<g id="Page-1_7_" transform="translate(1.000000, 0.000000)" sketch:type="MSShapeGroup">
				<g id="Group-6_7_">
					<path id="Fill-4_7_" class="st0" d="M257.1,17.1c-0.3,3.4-2.9,6-6.1,6.4c-0.2,0-1.2,0-1.4,0c-1.7-0.2-3.3-1-4.4-2.4
						c-1.2-1.4-1.7-3.2-1.6-5.1c0.3-3.6,3.3-6.4,6.8-6.4c0.2,0,0.4,0,0.5,0c1.8,0.1,3.4,1,4.6,2.4C256.7,13.4,257.2,15.2,257.1,17.1
						 M225.5,17.5c-0.2,0-0.4,0-0.5,0c-1.8-0.1-3.4-1-4.6-2.4c-1.2-1.4-1.7-3.2-1.6-5.1c0.3-3.6,3.3-6.4,6.8-6.4c0.2,0,0.4,0,0.5,0
						c1.8,0.1,3.4,1,4.6,2.4c1.2,1.4,1.7,3.2,1.6,5.1C232,14.7,229,17.5,225.5,17.5 M207.3,17.1c-0.3,3.4-2.9,6-6.1,6.4
						c-0.2,0-1.2,0-1.4,0c-1.7-0.2-3.3-1-4.4-2.4c-1.2-1.4-1.7-3.2-1.6-5.1c0.3-3.6,3.3-6.4,6.8-6.4c0.2,0,0.4,0,0.5,0
						c1.8,0.1,3.4,1,4.6,2.4C206.9,13.4,207.5,15.2,207.3,17.1 M175.8,17.5c-0.2,0-0.4,0-0.5,0c-1.8-0.1-3.4-1-4.6-2.4
						c-1.2-1.4-1.7-3.2-1.6-5.1c0.3-3.6,3.3-6.4,6.8-6.4c0.2,0,0.4,0,0.5,0c1.8,0.1,3.4,1,4.6,2.4c1.2,1.4,1.7,3.2,1.6,5.1
						C182.2,14.7,179.3,17.5,175.8,17.5 M157.4,17.1c-0.3,3.4-2.9,6-6.1,6.4c-0.2,0-1.2,0-1.4,0c-1.7-0.2-3.3-1-4.4-2.4
						c-1.2-1.4-1.7-3.2-1.6-5.1c0.3-3.6,3.3-6.4,6.8-6.4c0.2,0,0.4,0,0.5,0c1.8,0.1,3.4,1,4.6,2.4C157,13.4,157.5,15.2,157.4,17.1
						 M264.3,30.3c-2.2-2.3-4.5-4-6.9-5.2c0.1-0.1,0.2-0.2,0.4-0.3c2.1-1.9,3.3-4.6,3.6-7.4c0.2-3-0.7-5.9-2.6-8.2
						c-1.9-2.3-4.6-3.7-7.6-4c-0.3,0-0.6,0-0.9,0c-2.8,0-5.5,1.1-7.5,3c-2.1,1.9-3.3,4.6-3.6,7.4c-0.2,3,0.7,5.9,2.6,8.2
						c0.4,0.5,0.8,0.9,1.3,1.3c-1.5,0.7-3,1.7-4.4,2.9c-1.3-2.8-2.8-5.1-4.7-6.8c-0.6-0.6-1.3-1.2-2-1.7c0.3-0.2,0.6-0.5,0.9-0.8
						c2.1-1.9,3.3-4.6,3.6-7.4c0.2-3-0.7-5.9-2.6-8.2c-1.9-2.3-4.6-3.7-7.6-4c-0.3,0-0.6,0-0.9,0c-2.8,0-5.5,1.1-7.5,3
						c-2.1,1.9-3.3,4.6-3.6,7.4c-0.2,3,0.7,5.9,2.6,8.2c0.6,0.7,1.3,1.4,2,1.9c-2.6,1.8-4.9,4.7-6.8,8.4c-1.5-1.2-3-2.2-4.6-3
						c0.1-0.1,0.2-0.2,0.4-0.3c2.1-1.9,3.3-4.6,3.6-7.4c0.2-3-0.7-5.9-2.6-8.2c-1.9-2.3-4.6-3.7-7.6-4c-0.3,0-0.6,0-0.9,0
						c-2.8,0-5.5,1.1-7.5,3c-2.1,1.9-3.3,4.6-3.6,7.4c-0.2,3,0.7,5.9,2.6,8.2c0.4,0.5,0.8,0.9,1.3,1.3c-1.5,0.7-3,1.7-4.4,2.9
						c-1.3-2.8-2.8-5.1-4.7-6.8c-0.6-0.6-1.3-1.2-2-1.7c0.3-0.2,0.6-0.5,0.9-0.8c2.1-1.9,3.3-4.6,3.6-7.4c0.2-3-0.7-5.9-2.6-8.2
						c-1.9-2.3-4.6-3.7-7.6-4c-0.3,0-0.6,0-0.9,0c-2.8,0-5.5,1.1-7.5,3c-2.1,1.9-3.3,4.6-3.6,7.4c-0.2,3,0.7,5.9,2.6,8.2
						c0.6,0.7,1.3,1.4,2,1.9c-2.6,1.8-4.9,4.7-6.8,8.6c-1.5-1.3-3.1-2.4-4.7-3.1c0.1-0.1,0.2-0.2,0.4-0.3c2.1-1.9,3.3-4.6,3.6-7.4
						c0.2-3-0.7-5.9-2.6-8.2c-1.9-2.3-4.6-3.7-7.6-4c-0.3,0-0.6,0-0.9,0c-2.8,0-5.5,1.1-7.5,3c-2.1,1.9-3.3,4.6-3.6,7.4
						c-0.2,3,0.7,5.9,2.6,8.2c0.4,0.5,0.8,0.9,1.3,1.3c-1.5,0.7-4.1,2.3-5.2,3.7v5.2c0.6,0,1.1-0.2,1.6-0.7
						c3.2-3.4,6.6-5.3,10.1-5.5c0.3,0,1.3,0,1.6,0c3.5,0.2,6.9,2.1,10.1,5.5c0.7,0.8,1.9,0.9,2.8,0.3c0.5-0.2,0.9-0.6,1.1-1.1
						c1.5-3.6,3.3-6.5,5.3-8.3c1.7-1.6,3.6-2.4,5.4-2.3c3.9,0.1,7.6,3.9,10,10.3c0.1,0.5,0.3,0.9,0.7,1.3c0.4,0.4,0.9,0.6,1.5,0.6
						c0.6,0,1.1-0.2,1.6-0.7c3.2-3.4,6.6-5.3,10.1-5.5c0.3,0,0.5,0,0.8,0c0.3,0,0.5,0,0.8,0c3.5,0.2,6.9,2.1,10.1,5.5
						c0.8,0.9,2.2,0.9,3,0.1c0.3-0.3,0.5-0.6,0.6-0.9c0,0,0,0,0,0c1.5-3.6,3.3-6.5,5.3-8.3c1.7-1.6,3.6-2.4,5.4-2.3
						c3.9,0.1,7.6,3.9,10,10.3c0.1,0.5,0.3,0.9,0.7,1.3c0.4,0.4,0.9,0.6,1.5,0.6c0.6,0,1.1-0.2,1.6-0.7c3.2-3.4,6.6-5.3,10.1-5.5
						c0.3,0,1.3,0,1.6,0c3.5,0.2,6.9,2.1,10.1,5.5c0.8,0.9,2.2,0.9,3,0.1C265.1,32.5,265.1,31.2,264.3,30.3"/>
				</g>
			</g>
		</g>
	</g>
</g>
</svg>
