<?xml version="1.0" encoding="utf-8"?>
<!-- Generator: Adobe Illustrator 18.1.1, SVG Export Plug-In . SVG Version: 6.00 Build 0)  -->
<svg version="1.1" id="Layer_1" xmlns="http://www.w3.org/2000/svg" xmlns:xlink="http://www.w3.org/1999/xlink" x="0px" y="0px"
	 width="131.3px" height="131.5px" viewBox="0 0 131.3 131.5" enable-background="new 0 0 131.3 131.5" xml:space="preserve">
<g>
	<path display="none" fill="none" d="M59.9,123.8c-0.4,0-0.8-0.1-1.2-0.1v0.1H59.9z"/>
	<path display="none" fill="none" stroke="#010101" d="M60.2,42.2c-0.6,0.2-1.2,0.4-1.7,0.7c-0.3,0.1-0.6,0.3-0.9,0.4l2.4,0.3
		L60.2,42.2z"/>
	<path display="none" fill="none" stroke="#010101" d="M89.2,58.7c0.3,0.5,1,0.5,1.5,0.3l2.7-1.7c0,0,0,0,0,0
		c-0.2-0.4-0.4-0.8-0.6-1.2l-4.3,1.7L89.2,58.7z"/>
	<path display="none" fill="none" stroke="#010101" d="M51.8,53c-0.4,0.6-0.4,1.4-0.3,2.1l3.6-2.4c0.5-0.3,1.2-0.3,1.7,0
		c0.5,0.3,0.8,0.9,0.7,1.5l-0.3,2.7c-0.1,0.7-0.3,1.3-0.6,1.8l-2.4,4.1l0.9,2.1c0.3,0.7,0,1.6-0.7,2l-1.7,0.9
		c-0.3,0.2-0.4,0.5-0.3,0.8L53,70c0.1,0.2,0.4,0.4,0.7,0.4l1.6-0.2l0.3-2.9c0-0.2,0.1-0.3,0.1-0.5l0.9-2c0.9-1.9,2.9-3,5-2.8
		c0.1,0,0.2,0,0.3,0.1l0.4,0.2c0-0.7,0.3-1.3,0.8-1.8c0.7-0.7,1.8-1,2.8-0.6l3.8,1.4l3.9-3.2c0.4-0.3,1-0.4,1.5-0.3
		c1.2,0.4,2.2,1.3,2.7,2.5c0.5,1.2,0.5,2.5-0.1,3.7L77.1,65c-0.1,0.2-0.2,0.4-0.4,0.5L71.6,70c-0.4,0.3-0.8,0.4-1.3,0.4l-4.6-0.9
		c-1-0.2-2,0-2.9,0.5l-5.8,3.7c-0.7,0.5-1,1.4-0.7,2.2l0.5,1.2c0.1,0.2,0.1,0.5,0.1,0.8l-0.3,3.8c-0.2,2.2,0.8,4.4,2.7,5.6l1.2,0.8
		c0.9,0.6,2.2,0.6,3.1,0l6.5-4.2c0.5-0.3,1.1-0.3,1.6-0.1l2.7,1.4c1.3,0.7,2.7,1.1,4.2,1l1.2,0c0.6,0,1.2,0.4,1.5,1l1.3,3.1
		c5.7-3.4,9.7-8.7,11.6-14.7c0-0.1,0-0.1-0.1-0.2l-0.7-2.5c-2.1,0.9-4.4,0.5-6.2-0.9l-7.8-6.6c-0.7-0.6-0.7-1.5-0.2-2.2
		c0.6-0.7,1.5-0.7,2.2-0.2l7.4,6.3c2.5-2.4,5.6-6.2,5.8-8.1c-0.1-0.3-0.1-0.5-0.2-0.8l-2.3,1.4c-0.1,0-0.1,0.1-0.2,0.1
		c-0.6,0.3-1.3,0.4-1.9,0.4c-1.4,0-2.6-0.6-3.4-1.7l-1.8-2.6c-0.3-0.4-0.4-0.9-0.2-1.4c0.1-0.5,0.5-0.8,0.9-1l5.8-2.2
		c-4.9-7.9-13.6-12.5-22.6-12.5c-1.7,0-3.4,0.2-5.1,0.5c0,0.1,0,0.2,0,0.2l-0.6,2.9c-0.1,0.7-0.4,1.3-1,1.7c-0.6,0.4-1.3,0.6-2,0.5
		l-4.5-0.6L51.8,53z"/>
	<path display="none" fill="none" stroke="#010101" d="M92.6,69.9l1.1-0.5c0.4-0.2,0.9-0.2,1.3,0c0.1,0,0.2,0.1,0.2,0.1
		c0.1-1,0.1-1.9,0.1-2.9c-0.4,0.6-0.9,1.2-1.5,1.9C93.4,68.9,93,69.4,92.6,69.9z"/>
	<path display="none" fill="none" stroke="#010101" d="M80,98.8l-1.4-3.3c-3.3,1.2-6.6,1.7-9.9,1.7c-11.7,0-22.8-6.9-27.5-18.4
		c-6.1-14.7,0.5-31.5,14.7-38.3l-1.4-3.3C47,40.9,41.1,47,37.9,54.8c-3.4,8.2-3.4,17.3,0,25.5c3.4,8.2,9.8,14.6,18,18
		C63.7,101.5,72.2,101.6,80,98.8z"/>
	<path display="none" fill="none" stroke="#010101" d="M125.4,64.1c0-33.1-26.9-60-60-60c-33.1,0-60,26.9-60,60
		c0,29.8,21.7,54.4,50.1,59.2V122c0-2.7,2.2-4.9,4.9-4.9h3.4c0,0,0-0.1,0-0.1v-6.6c0-1.8,1.4-3.2,3.2-3.2h0.1v-3.3
		c-4.2-0.2-8.4-1.1-12.4-2.8c-9-3.7-16-10.7-19.7-19.7c-3.7-9-3.7-18.9,0-27.9c3.5-8.5,10-15.2,18.3-19.1L52.7,33
		c-0.3-0.8,0-1.7,0.8-2c0.8-0.3,1.7,0,2,0.8l1.2,2.9v0c0,0,0,0,0,0l2,4.7c14.8-5.3,31.4,2,37.4,16.7c6.1,14.7-0.5,31.5-14.7,38.3
		l2,4.7l0,0c0,0,0,0,0,0l1,2.4c0.3,0.8,0,1.7-0.8,2c-0.2,0.1-0.4,0.1-0.6,0.1c-0.6,0-1.2-0.4-1.4-1l-0.4-1c-3.6,1.3-7.2,2-10.9,2.2
		v3.3h0.1c1.8,0,3.2,1.4,3.2,3.2v6.6c0,0,0,0.1,0,0.1H77c2.6,0,4.7,2,4.8,4.6C107,114.6,125.4,91.5,125.4,64.1z"/>
	<path display="none" fill="none" stroke="#010101" d="M51.4,47.3c-8.5,7.3-11.8,19.5-7.3,30.4c5.6,13.6,21.3,20.1,34.8,14.4
		c0.3-0.1,0.5-0.2,0.8-0.4l-1-2.4l-0.1,0c-2,0.1-4-0.4-5.8-1.4L71,87l-5.7,3.7c-2,1.3-4.5,1.2-6.5-0.1l-1.2-0.8
		c-2.8-1.9-4.4-5.1-4.1-8.5l0.3-3.4l-0.4-0.8c-0.5-1.2-0.5-2.6-0.1-3.7c-1.4-0.1-2.6-0.9-3.2-2.1L49.5,70c-0.9-1.8-0.2-4,1.6-4.9
		l0.5-0.3L51,63.2c-0.2-0.5-0.2-1,0.1-1.4l2.7-4.5l-2.1,1.4c-0.4,0.3-0.9,0.3-1.3,0.2c-0.4-0.1-0.8-0.5-1-0.9l-0.6-1.4
		c-0.7-1.7-0.6-3.5,0.3-5.1L51.4,47.3z"/>
	<path display="none" fill="none" stroke="#010101" d="M70.5,110.4c0-0.1,0-0.1-0.1-0.1h-3.3c-0.1,0-0.1,0-0.1,0.1v6.6
		c0,0,0,0.1,0,0.1h3.5c0,0,0-0.1,0-0.1V110.4z"/>
	<path display="none" fill="none" stroke="#010101" d="M65.7,66.3c0.2,0,0.3,0,0.5,0.1l3.9,0.8l4.3-3.8l0.4-0.8
		c0.2-0.4,0.2-0.8,0-1.1c-0.1-0.1-0.1-0.2-0.2-0.4l-3.7,3c-0.4,0.3-1,0.4-1.5,0.3L66,63.1l0.6,1c0.3,0.6,0.3,1.3-0.2,1.8
		C66.2,66.1,66,66.2,65.7,66.3z"/>
	<path display="none" fill="none" stroke="#010101" d="M61,65.1c-0.7,0-1.3,0.4-1.6,1l-0.8,1.8l-0.1,1.2l2.6-1.7
		c1.1-0.7,2.3-1,3.5-1.1L61,65.1z"/>
	<path d="M77,117.2h-3.4c0,0,0-0.1,0-0.1v-6.6c0-1.8-1.4-3.2-3.2-3.2h-0.1v-3.3c3.7-0.2,7.4-0.9,10.9-2.2l0.4,1c0.2,0.6,0.8,1,1.4,1
		c0.2,0,0.4,0,0.6-0.1c0.8-0.3,1.2-1.2,0.8-2l-1-2.4c0,0,0,0,0,0l0,0l-2-4.7c14.2-6.8,20.8-23.6,14.7-38.3
		c-6.1-14.7-22.6-21.9-37.4-16.7l-2-4.7c0,0,0,0,0,0v0l-1.2-2.9c-0.3-0.8-1.2-1.2-2-0.8c-0.8,0.3-1.2,1.2-0.8,2l0.6,1.5
		C45,38.3,38.6,45.1,35.1,53.6c-3.7,9-3.7,18.9,0,27.9c3.7,9,10.7,16,19.7,19.7c4,1.7,8.2,2.6,12.4,2.8v3.3h-0.1
		c-1.8,0-3.2,1.4-3.2,3.2v6.6c0,0,0,0.1,0,0.1h-3.4c-2.7,0-4.9,2.2-4.9,4.9v1.2c1,0.2,2.1,0.3,3.1,0.4V122c0-1,0.8-1.8,1.8-1.8H77
		c1,0,1.8,0.8,1.8,1.8v0.5c1-0.2,2.1-0.5,3.1-0.8C81.7,119.2,79.6,117.2,77,117.2z M95.3,69.4c-0.1-0.1-0.2-0.1-0.2-0.1
		c-0.4-0.2-0.9-0.2-1.3,0l-1.1,0.5c0.4-0.4,0.8-0.9,1.3-1.4c0.6-0.7,1-1.3,1.5-1.9C95.4,67.5,95.4,68.5,95.3,69.4z M93.3,57.3
		C93.3,57.3,93.3,57.3,93.3,57.3L90.6,59c-0.5,0.2-1.1,0.2-1.5-0.3l-0.7-1l4.3-1.7C93,56.5,93.2,56.9,93.3,57.3z M58.5,42.9
		c0.6-0.2,1.2-0.5,1.7-0.7l-0.3,1.4l-2.4-0.3C57.9,43.1,58.2,43,58.5,42.9z M60,46.7c0.7,0.1,1.4-0.1,2-0.5c0.5-0.4,0.9-1,1-1.7
		l0.6-2.9c0-0.1,0-0.2,0-0.2c1.7-0.3,3.4-0.5,5.1-0.5c9,0,17.7,4.6,22.6,12.5l-5.8,2.2c-0.4,0.2-0.8,0.5-0.9,1
		c-0.1,0.5-0.1,1,0.2,1.4l1.8,2.6c0.8,1.1,2.1,1.7,3.4,1.7c0.6,0,1.3-0.1,1.9-0.4c0.1,0,0.1-0.1,0.2-0.1l2.3-1.4
		c0.1,0.3,0.1,0.5,0.2,0.8c-0.2,1.9-3.3,5.7-5.8,8.1l-7.4-6.3c-0.7-0.6-1.6-0.5-2.2,0.2c-0.6,0.7-0.5,1.6,0.2,2.2l7.8,6.6
		c1.7,1.5,4.1,1.8,6.2,0.9l0.7,2.5c0,0.1,0,0.1,0.1,0.2c-1.9,6-6,11.3-11.6,14.7l-1.3-3.1c-0.2-0.6-0.8-1-1.5-1l-1.2,0
		c-1.5,0-2.9-0.3-4.2-1l-2.7-1.4c-0.5-0.3-1.1-0.2-1.6,0.1l-6.5,4.2c-0.9,0.6-2.2,0.6-3.1,0l-1.2-0.8c-1.9-1.2-2.9-3.4-2.7-5.6
		l0.3-3.8c0-0.3,0-0.5-0.1-0.8l-0.5-1.2c-0.3-0.8-0.1-1.7,0.7-2.2l5.8-3.7c0.9-0.5,1.9-0.7,2.9-0.5l4.6,0.9c0.5,0.1,1,0,1.3-0.4
		l5.1-4.5c0.2-0.1,0.3-0.3,0.4-0.5l0.5-1.1c0.6-1.2,0.6-2.5,0.1-3.7c-0.5-1.2-1.5-2.1-2.7-2.5c-0.5-0.2-1.1-0.1-1.5,0.3l-3.9,3.2
		l-3.8-1.4c-1-0.4-2-0.1-2.8,0.6c-0.5,0.5-0.8,1.2-0.8,1.8l-0.4-0.2c-0.1,0-0.2-0.1-0.3-0.1c-2.1-0.2-4.1,0.9-5,2.8l-0.9,2
		c-0.1,0.2-0.1,0.3-0.1,0.5l-0.3,2.9l-1.6,0.2c-0.3,0-0.5-0.1-0.7-0.4l-0.6-1.3c-0.1-0.3,0-0.7,0.3-0.8l1.7-0.9c0.7-0.4,1-1.2,0.7-2
		l-0.9-2.1l2.4-4.1c0.3-0.6,0.5-1.2,0.6-1.8l0.3-2.7c0.1-0.6-0.2-1.2-0.7-1.5c-0.5-0.3-1.2-0.3-1.7,0L51.5,55
		c-0.2-0.7-0.1-1.4,0.3-2.1l3.7-6.8L60,46.7z M48.8,56.6l0.6,1.4c0.2,0.4,0.5,0.8,1,0.9c0.4,0.1,0.9,0.1,1.3-0.2l2.1-1.4l-2.7,4.5
		c-0.2,0.4-0.3,0.9-0.1,1.4l0.6,1.6l-0.5,0.3c-1.8,1-2.5,3.1-1.6,4.9l0.6,1.3c0.6,1.3,1.8,2.1,3.2,2.1c-0.4,1.2-0.4,2.5,0.1,3.7
		l0.4,0.8l-0.3,3.4c-0.3,3.4,1.3,6.6,4.1,8.5l1.2,0.8c2,1.3,4.5,1.3,6.5,0.1L71,87l1.9,1c1.8,1,3.8,1.4,5.8,1.4l0.1,0l1,2.4
		c-0.3,0.1-0.5,0.2-0.8,0.4c-13.6,5.6-29.2-0.8-34.8-14.4c-4.5-10.9-1.2-23.1,7.3-30.4l-2.3,4.2C48.2,53.1,48.1,54.9,48.8,56.6z
		 M58.5,69.1l0.1-1.2l0.8-1.8c0.3-0.6,0.9-1,1.6-1l3.5,1.2c-1.2,0.1-2.4,0.4-3.5,1.1L58.5,69.1z M66.6,64.1l-0.6-1l3.4,1.2
		c0.5,0.2,1.1,0.1,1.5-0.3l3.7-3c0.1,0.1,0.2,0.2,0.2,0.4c0.2,0.4,0.1,0.8,0,1.1l-0.4,0.8l-4.3,3.8l-3.9-0.8c-0.2,0-0.4-0.1-0.5-0.1
		c0.3-0.1,0.5-0.3,0.7-0.5C66.8,65.4,66.9,64.7,66.6,64.1z M56,98.3c-8.2-3.4-14.6-9.8-18-18c-3.4-8.2-3.4-17.3,0-25.5
		C41.1,47,47,40.9,54.5,37.4l1.4,3.3c-14.2,6.8-20.8,23.6-14.7,38.3c4.7,11.5,15.9,18.4,27.5,18.4c3.3,0,6.6-0.6,9.9-1.7l1.4,3.3
		C72.2,101.6,63.7,101.5,56,98.3z M66.9,117.2c0,0,0-0.1,0-0.1v-6.6c0-0.1,0-0.1,0.1-0.1h3.3c0.1,0,0.1,0,0.1,0.1v6.6
		c0,0,0,0.1,0,0.1H66.9z"/>
</g>
<path d="M49.2,63.1l-1.1-3.4c-0.3-0.8-1.1-1.3-2-1c-0.8,0.3-1.3,1.1-1,2l1.1,3.4c0.2,0.7,0.8,1.1,1.5,1.1c0.2,0,0.3,0,0.5-0.1
	C49,64.8,49.4,63.9,49.2,63.1L49.2,63.1z M49.2,63.1"/>
<path d="M70,57.7c0.2,0,0.4,0,0.6-0.1l1.1-0.5c0.8-0.3,1.2-1.2,0.8-2c-0.3-0.8-1.2-1.2-2-0.8l-1.1,0.5c-0.8,0.3-1.2,1.2-0.8,2
	C68.8,57.3,69.4,57.7,70,57.7L70,57.7z M70,57.7"/>
<path d="M74.1,52.2l4.7,1.6c0.2,0.1,0.3,0.1,0.5,0.1c0.7,0,1.3-0.4,1.5-1.1c0.3-0.8-0.2-1.7-1-2l-4.7-1.6c-0.8-0.3-1.7,0.2-2,1
	C72.9,51,73.3,51.9,74.1,52.2L74.1,52.2z M74.1,52.2"/>
<g id="BGH-homepage-Copy_16_" transform="translate(-127.000000, -515.000000)">
	<g id="story_12_" transform="translate(128.000000, 516.000000)">
		<g id="Oval-25-Copy_12_">
			<path fill="#010101" d="M64.7,123.6c-33.4,0-60.5-27.1-60.5-60.5c0-33.4,27.1-60.5,60.5-60.5s60.5,27.1,60.5,60.5
				C125.2,96.5,98.1,123.6,64.7,123.6z M64.7,3.6C31.9,3.6,5.2,30.3,5.2,63.1s26.7,59.5,59.5,59.5c32.8,0,59.5-26.7,59.5-59.5
				S97.5,3.6,64.7,3.6z"/>
		</g>
	</g>
</g>
</svg>
