<?xml version="1.0" encoding="UTF-8" standalone="no"?>
<svg width="58px" height="40px" viewBox="0 0 58 40" version="1.1" xmlns="http://www.w3.org/2000/svg" xmlns:xlink="http://www.w3.org/1999/xlink" xmlns:sketch="http://www.bohemiancoding.com/sketch/ns">
    <!-- Generator: Sketch 3.5.2 (25235) - http://www.bohemiancoding.com/sketch -->
    <title>stacked-logo</title>
    <desc>Created with Sketch.</desc>
    <defs></defs>
    <g id="Page-1" stroke="none" stroke-width="1" fill="none" fill-rule="evenodd" sketch:type="MSPage">
        <g id="BGH-homepage" sketch:type="MSArtboardGroup" transform="translate(-20.000000, -29.000000)" fill="#FFFFFF">
            <g id="stacked-logo" sketch:type="MSLayerGroup" transform="translate(20.000000, 29.000000)">
                <path d="M15.296877,20.959563 C15.2125957,20.959563 15.1269551,20.9559977 15.0424473,20.9489822 C14.2113027,20.879747 13.4559434,20.4788269 12.9157051,19.8198275 C12.3708223,19.1553076 12.1095957,18.3088442 12.1799434,17.4366187 C12.3158809,15.7526624 13.6921348,14.4336285 15.3131895,14.4336285 C15.3974707,14.4336285 15.4831113,14.4371938 15.5676191,14.4442093 C16.3987637,14.5134445 17.154123,14.9143646 17.6943613,15.573364 C18.2392441,16.2379988 18.500584,17.0843473 18.430123,17.9566878 C18.2941855,19.640529 16.9178184,20.959563 15.296877,20.959563 M23.6638301,20.2492697 C23.7997676,18.5654284 25.1761348,17.2463945 26.7970762,17.2463945 C26.8813574,17.2463945 26.966998,17.2499597 27.0515059,17.2569753 C27.8826504,17.3262105 28.6380098,17.7271305 29.178248,18.38613 C29.7231309,19.0506498 29.9843574,19.8971133 29.9140098,20.7693387 C29.787248,22.3394365 28.5819355,23.5918804 27.1056543,23.7540426 C26.9928262,23.7486371 26.8798848,23.7451869 26.7669434,23.7451869 C26.6622715,23.7454169 26.5575996,23.7487522 26.453041,23.7538125 C25.6508965,23.6676711 24.9238574,23.2720414 24.3995918,22.6325934 C23.854709,21.9679586 23.5933691,21.1216101 23.6638301,20.2492697 M20.3572637,28.4051064 C20.5499551,28.5900403 20.7962285,28.6817021 21.0420488,28.6817021 C21.3066738,28.6817021 21.5707324,28.5754342 21.7669355,28.3647384 C23.2578301,26.7633583 24.820998,25.8965382 26.4186035,25.7831397 C26.5391348,25.7917654 26.6605723,25.7970558 26.7807637,25.7970558 C26.9000488,25.7970558 27.0186543,25.7913053 27.1368066,25.7829097 C28.7378105,25.8953882 30.3093613,26.7630132 31.8132832,28.3672685 C32.193002,28.7723289 32.8242051,28.7880851 33.2230684,28.4026912 C33.6219316,28.0171823 33.6375645,27.3764692 33.2578457,26.9714089 C32.257459,25.9042438 31.1904629,25.0925129 30.0877832,24.5500173 C30.1447637,24.5003335 30.2011777,24.4497297 30.256459,24.3974008 C31.2100605,23.4940081 31.794252,22.2643358 31.9016426,20.9348361 C32.0149238,19.5306958 31.5921582,18.1655434 30.7110566,17.0907878 C29.8254238,16.0106268 28.5836348,15.3530075 27.2144043,15.2390339 C27.0758613,15.2275331 26.9355059,15.2216676 26.7970762,15.2216676 C25.5083887,15.2216676 24.2740762,15.7187349 23.3213809,16.6213226 C22.3677793,17.5247154 21.7835879,18.7543876 21.6761973,20.0838873 C21.562916,21.4880276 21.9856816,22.85318 22.8667832,23.9278206 C23.0530176,24.1549626 23.2551113,24.3631282 23.4706855,24.5517424 C22.7751387,24.8957332 22.0944316,25.3474871 21.4366074,25.9035538 C20.841541,24.6056814 20.1206191,23.5359862 19.2842637,22.7127545 C18.9858809,22.4191374 18.6751504,22.1612881 18.3549043,21.9394365 C18.4991113,21.8290282 18.6389004,21.7112593 18.7725723,21.5846348 C19.7261738,20.6812421 20.3103652,19.4515699 20.4177559,18.1220702 C20.5310371,16.7179298 20.1082715,15.3527775 19.2271699,14.2781369 C18.3415371,13.1979758 17.099748,12.5402415 15.7305176,12.426383 C15.5919746,12.4147671 15.4516191,12.4089017 15.3131895,12.4089017 C14.0246152,12.4089017 12.7901895,12.906084 11.8374941,13.8085566 C10.8838926,14.7119494 10.2997012,15.9416216 10.1923105,17.2711213 C10.0790293,18.6752616 10.5017949,20.040414 11.3828965,21.1151696 C11.6604355,21.453525 11.9728652,21.7504773 12.3132754,22.0022312 C10.8610098,23.0371938 9.58670898,24.8149971 8.62529102,27.212697 C8.41764648,27.7305808 8.66290039,28.3212651 9.17289258,28.5320759 C9.68299805,28.7428867 10.2648105,28.493893 10.4724551,27.9761242 C11.1530488,26.2785969 12.0092285,24.9281656 12.9481035,24.0708913 C13.7571582,23.3321909 14.5974785,22.9666935 15.445502,22.9848649 C17.2517715,23.0232777 18.9675293,24.8199425 20.0533301,27.7983209 C20.0815371,28.0222427 20.1831504,28.2378838 20.3572637,28.4051064" id="Fill-1" sketch:type="MSShapeGroup"></path>
                <path d="M1.22554453,9.6666705 L1.22554453,5.56327775 L3.84607969,5.56327775 C5.38024766,5.56327775 6.45800547,6.20307073 6.45800547,7.64585394 C6.45800547,9.06218516 5.41932969,9.6666705 3.99391172,9.6666705 L1.22554453,9.6666705 Z M1.22554453,0.983404255 L3.31592344,0.983404255 C4.74145469,0.983404255 5.71918516,1.53935595 5.71918516,2.86747556 C5.71918516,4.1999655 4.73703672,4.80433583 3.49411484,4.80433583 L1.22554453,4.80433583 L1.22554453,0.983404255 Z M7.31848984,7.65907993 C7.31848984,6.21192639 6.41461875,5.33383554 5.28033359,5.05148936 C5.93657187,4.71175388 6.57106016,4.01905693 6.57106016,2.83216791 C6.57106016,1.11577918 5.25427891,0.211351351 3.57239219,0.211351351 L0.382392187,0.211351351 L0.382392187,10.4388384 L4.27201719,10.4388384 C6.04951328,10.4388384 7.31848984,9.37098332 7.31848984,7.65907993 L7.31848984,7.65907993 Z" id="Fill-3" sketch:type="MSShapeGroup"></path>
                <path d="M14.6326184,9.6666705 L9.6957082,9.6666705 L9.6957082,0.211351351 L8.84813789,0.211351351 L8.84813789,10.4388384 L14.6326184,10.4388384 L14.6326184,9.6666705 Z" id="Fill-5" sketch:type="MSShapeGroup"></path>
                <path d="M19.5001777,0.846682001 C21.9251895,0.846682001 23.7331582,2.75720529 23.7331582,5.31626222 C23.7331582,7.87083381 21.9294941,9.80343876 19.4914551,9.80343876 C17.0491113,9.80343876 15.2411426,7.87531915 15.2411426,5.32948821 C15.2411426,2.77917194 17.0577207,0.846682001 19.5001777,0.846682001 M19.4914551,10.5843473 C22.411959,10.5843473 24.5979473,8.31212191 24.5979473,5.30740656 C24.5979473,2.29832087 22.4076543,0.065773433 19.5132051,0.065773433 C16.6231738,0.065773433 14.3806582,2.29383554 14.3806582,5.32063255 C14.3806582,8.30763657 16.5666465,10.5843473 19.4914551,10.5843473" id="Fill-7" sketch:type="MSShapeGroup"></path>
                <path d="M30.5343945,0.846682001 C32.9594063,0.846682001 34.767375,2.75720529 34.767375,5.31626222 C34.767375,7.87083381 32.9638242,9.80343876 30.5256719,9.80343876 C28.0833281,9.80343876 26.2753594,7.87531915 26.2753594,5.32948821 C26.2753594,2.77917194 28.0919375,0.846682001 30.5343945,0.846682001 M30.5256719,10.5843473 C33.4461758,10.5843473 35.6321641,8.31212191 35.6321641,5.30740656 C35.6321641,2.29832087 33.4418711,0.065773433 30.5474219,0.065773433 C27.6573906,0.065773433 25.414875,2.29383554 25.414875,5.32063255 C25.414875,8.30763657 27.6008633,10.5843473 30.5256719,10.5843473" id="Fill-9" sketch:type="MSShapeGroup"></path>
                <path d="M38.0484191,9.6666705 L38.0484191,0.983404255 L40.3039621,0.983404255 C42.8550559,0.983404255 44.5064699,2.44826912 44.5064699,5.32060955 C44.5064699,8.140046 42.9201926,9.6666705 40.2431301,9.6666705 L38.0484191,9.6666705 Z M45.3626496,5.32497987 C45.3626496,2.46598045 43.6720402,0.211351351 40.5429855,0.211351351 L37.2009621,0.211351351 L37.2009621,10.4388384 L40.5299582,10.4388384 C43.6155129,10.4388384 45.3626496,8.23274296 45.3626496,5.32497987 L45.3626496,5.32497987 Z" id="Fill-11" sketch:type="MSShapeGroup"></path>
                <path d="M48.7916844,10.4387809 L49.6348367,10.4387809 L49.6348367,6.1280276 L53.3201023,0.211293847 L52.3770359,0.211293847 L49.2392586,5.25879241 L46.1797586,0.211293847 L45.1888875,0.211293847 L48.7916844,6.11043128 L48.7916844,10.4387809 Z" id="Fill-13" sketch:type="MSShapeGroup"></path>
                <path d="M5.16057266,24.9954342 C7.86448281,24.9954342 9.52303359,23.1903738 9.52303359,19.6555837 L5.30874453,19.6555837 L5.30874453,21.1848534 L7.56813906,21.1848534 C7.49824453,22.5092927 6.43634609,23.3115929 5.15649453,23.3115929 C3.34569375,23.3115929 2.31676016,21.753111 2.31676016,20.0608741 C2.31676016,18.2140656 3.52671719,16.7306843 5.3911,16.7306843 C6.22654922,16.7306843 7.07434609,17.0274066 7.75335391,17.5455204 L8.584725,16.233502 C7.69580703,15.4647844 6.43226797,15.0344221 5.21404141,15.0344221 C2.4566625,15.0344221 0.382482813,17.2029097 0.382482813,20.0816906 C0.382482813,22.6765152 2.07388516,24.9954342 5.16057266,24.9954342" id="Fill-15" sketch:type="MSShapeGroup"></path>
                <path d="M35.3234273,17.1227602 L36.6706812,17.1227602 C38.6480055,17.1227602 39.7258766,18.0890627 39.7258766,20.4760667 C39.7258766,22.7703738 38.7219781,23.7940656 36.6359039,23.7940656 L35.3234273,23.7940656 L35.3234273,17.1227602 Z M33.3199352,25.5720989 L36.8662047,25.5720989 C39.98665,25.5720989 41.7423961,23.3704888 41.7423961,20.4583554 C41.7423961,17.5948706 40.0430641,15.3446118 36.879232,15.3446118 L33.3199352,15.3446118 L33.3199352,25.5720989 Z" id="Fill-17" sketch:type="MSShapeGroup"></path>
                <path d="M5.95826523,33.6641058 L2.34685898,33.6641058 L2.34685898,29.626958 L1.13281251e-05,29.626958 L1.13281251e-05,39.8544451 L2.34685898,39.8544451 L2.34685898,35.7246003 L5.95826523,35.7246003 L5.95826523,39.8544451 L8.30941758,39.8544451 L8.30941758,29.626958 L5.95826523,29.626958 L5.95826523,33.6641058 Z" id="Fill-19" sketch:type="MSShapeGroup"></path>
                <path d="M15.5323207,36.0820012 C15.5323207,37.2379528 14.8195551,37.8909718 13.8591566,37.8909718 C12.8465355,37.8909718 12.0859652,37.1585969 12.0859652,36.0820012 L12.0859652,29.626912 L9.76098086,29.626912 L9.76098086,36.0776308 C9.76098086,38.4380679 11.3863402,40 13.7808793,40 C16.166809,40 17.822641,38.4380679 17.822641,36.0731455 L17.822641,29.626912 L15.5323207,29.626912 L15.5323207,36.0820012 Z" id="Fill-21" sketch:type="MSShapeGroup"></path>
                <path d="M27.4443766,29.6269465 L24.7455641,35.5172283 L22.0032516,29.6269465 L19.4826305,29.6269465 L19.0827477,39.8544336 L21.373068,39.8544336 L21.5990641,33.5317194 L23.8893844,38.499862 L25.4843844,38.499862 L27.6877047,33.5052674 L27.8876461,39.8544336 L30.2822984,39.8544336 L29.8998609,29.6269465 L27.4443766,29.6269465 Z" id="Fill-23" sketch:type="MSShapeGroup"></path>
                <path d="M34.4199641,35.667257 L35.5281945,32.080138 L36.653757,35.667257 L34.4199641,35.667257 Z M34.2548,29.627004 L30.7433078,39.8543761 L33.1552922,39.8543761 L33.8375852,37.626314 L37.2448586,37.626314 L37.9401789,39.8543761 L40.478132,39.8543761 L36.9188352,29.627004 L34.2548,29.627004 Z" id="Fill-25" sketch:type="MSShapeGroup"></path>
                <path d="M47.2892578,36.073157 L43.5082695,29.6269235 L41.0354531,29.6269235 L41.0354531,39.8544106 L43.2692461,39.8544106 L43.2301641,33.5052444 L46.954625,39.8544106 L49.6381445,39.8544106 L49.6381445,29.6269235 L47.2457578,29.6269235 L47.2892578,36.073157 Z" id="Fill-27" sketch:type="MSShapeGroup"></path>
                <path d="M53.084398,32.5301553 C53.084398,31.8859919 53.6710816,31.5418861 54.5272613,31.5418861 C55.261777,31.5418861 56.1352887,31.793295 56.9565777,32.3184244 L57.9518668,30.7431512 C57.0043824,29.9754687 55.5508707,29.4813916 54.2209488,29.4813916 C52.252234,29.4813916 50.7723277,30.5578723 50.7723277,32.7066935 C50.7723277,36.4305578 55.5594801,35.0671305 55.5594801,36.9202645 C55.5594801,37.5644278 54.9727965,37.8821967 54.1123121,37.8821967 C53.2170504,37.8821967 52.273984,37.5423462 51.3353355,36.8805865 L50.3182965,38.499793 C51.3483629,39.3778838 52.6608395,39.9999655 54.2339762,39.9999655 C56.2939957,39.9999655 57.9323824,38.9367108 57.9323824,36.7438413 C57.9323824,32.9184244 53.084398,34.4008856 53.084398,32.5301553" id="Fill-29" sketch:type="MSShapeGroup"></path>
            </g>
        </g>
    </g>
</svg>