<?xml version="1.0" encoding="utf-8"?>
<!-- Generator: Adobe Illustrator 18.1.1, SVG Export Plug-In . SVG Version: 6.00 Build 0)  -->
<svg version="1.1" id="Layer_1" xmlns="http://www.w3.org/2000/svg" xmlns:xlink="http://www.w3.org/1999/xlink" x="0px" y="0px"
	 width="131.3px" height="131.5px" viewBox="0 0 131.3 131.5" enable-background="new 0 0 131.3 131.5" xml:space="preserve">
<g id="BGH-homepage-Copy_15_" transform="translate(-127.000000, -515.000000)">
	<g id="story_11_" transform="translate(128.000000, 516.000000)">
		<g id="Oval-25-Copy_11_">
			<path fill="#010101" d="M64.6,125.5C31.2,125.5,4.1,98.4,4.1,65c0-33.4,27.1-60.5,60.5-60.5c33.4,0,60.5,27.1,60.5,60.5
				C125.1,98.4,98,125.5,64.6,125.5z M64.6,5.5C31.8,5.5,5.1,32.2,5.1,65s26.7,59.5,59.5,59.5s59.5-26.7,59.5-59.5
				S97.4,5.5,64.6,5.5z"/>
		</g>
	</g>
</g>
<g>
	<path d="M125.5,66c0-3.2-0.2-6.3-0.7-9.3l0-2.8l0-0.1c-0.8-3.7-1.9-7.4-3.4-10.9l-0.5,0.1c-0.7-1.7-1.5-3.4-2.4-5c0-0.3,0-0.6,0-1
		v-0.1l-0.1-0.1c-0.5-0.9-1-1.8-1.6-2.7l-0.2-0.2l-0.3,0c-0.1,0-0.2,0-0.3,0c-0.5-0.8-1-1.6-1.6-2.4c-18.6,0.7-29.7,4.9-32.4,6
		c-2.9-1.2-15.8-6.1-37.4-6.1c-0.8,0-1.5,0.7-1.5,1.5c0,0,0,1.8,0,4.8h-1.6c-2.5,0-4.6,2.1-4.6,4.6v51.4c0,2.5,2.1,4.6,4.6,4.6h74.6
		c0.5-0.8,1-1.6,1.4-2.4c0,0,3.3-6.4,3.3-6.7l0.5,0.1c1.5-3.5,2.6-7.2,3.4-10.9l0-2.8C125.3,72.3,125.5,69.2,125.5,66z M42.7,81.4
		c0,2.7,0,5,0,6.5l0,1.8c0,0.9,0,1.5,0.6,2c0.4,0.4,0.9,0.6,1.4,0.6c10,0,18.1,1.1,23.9,2.3h-27c-0.6,0-1.2-0.5-1.2-1.2V42.2
		c0-0.6,0.5-1.2,1.2-1.2h1.1l0,20.6C42.7,68.8,42.7,76,42.7,81.4z M46.7,38.9l0-4.1C65,35,76.6,38.9,80.2,40.3v53.5
		c-4.7-1.7-16.2-5.1-33.5-5.3c0-6.6,0-29.6,0-49.3c0-0.1,0-0.1,0-0.2S46.7,38.9,46.7,38.9z M117.5,37.2c0,19.6,0,44.4,0,51.3
		c-17.3,0.2-28.7,3.6-33.5,5.3V40.4c3.4-1.3,14.5-5.1,32.1-5.5C116.7,35.6,117.1,36.4,117.5,37.2z M117.6,94.7h-22
		c5.7-1.2,13.6-2.3,23.2-2.3C118.5,93.2,118.1,93.9,117.6,94.7z M123.8,78.1c-0.6,2.8-1.3,5.5-2.3,8.2c0-1.4,0-3,0-4.9
		c0-5.4,0-12.6,0-19.8l0-15.8c1,2.7,1.8,5.4,2.3,8.2V78.1z"/>
	<path d="M61.5,44.8c5,0.7,9.6,1.6,13.8,2.9c0.1,0,0.3,0.1,0.4,0.1c0.6,0,1.2-0.4,1.4-1.1c0.2-0.8-0.2-1.6-1-1.8
		c-4.3-1.3-9.1-2.3-14.2-3c-0.8-0.1-1.5,0.5-1.6,1.3C60.1,44,60.7,44.7,61.5,44.8L61.5,44.8z M61.5,44.8"/>
	<path d="M50.7,43.9c1.5,0.1,3.1,0.2,4.6,0.3c0,0,0.1,0,0.1,0c0.8,0,1.4-0.6,1.5-1.3c0.1-0.8-0.5-1.5-1.3-1.6
		c-1.6-0.1-3.1-0.2-4.7-0.3c-0.8,0-1.5,0.6-1.5,1.4C49.3,43.1,49.9,43.8,50.7,43.9L50.7,43.9z M50.7,43.9"/>
	<path d="M76.1,57.4c-2.9-0.9-6.1-1.6-9.5-2.2c-0.8-0.1-1.6,0.4-1.7,1.2c-0.1,0.8,0.4,1.6,1.2,1.7c3.3,0.6,6.3,1.3,9.2,2.1
		c0.1,0,0.3,0.1,0.4,0.1c0.6,0,1.2-0.4,1.4-1.1C77.3,58.4,76.9,57.6,76.1,57.4L76.1,57.4z M76.1,57.4"/>
	<path d="M50.7,56.3c3.1,0.1,6.2,0.4,9.2,0.8c0.1,0,0.1,0,0.2,0c0.7,0,1.4-0.5,1.4-1.3c0.1-0.8-0.5-1.5-1.3-1.6
		c-3.1-0.4-6.2-0.6-9.5-0.8c-0.8,0-1.5,0.6-1.5,1.4C49.3,55.6,49.9,56.3,50.7,56.3L50.7,56.3z M50.7,56.3"/>
	<path d="M75.3,53.9c0.1,0,0.3,0.1,0.4,0.1c0.6,0,1.2-0.4,1.4-1.1c0.2-0.8-0.2-1.6-1-1.8c-1-0.3-2.1-0.6-3.2-0.9
		c-0.8-0.2-1.6,0.3-1.8,1.1c-0.2,0.8,0.3,1.6,1.1,1.8C73.3,53.4,74.3,53.6,75.3,53.9L75.3,53.9z M75.3,53.9"/>
	<path d="M50.7,50.1c5.3,0.2,10.5,0.8,15.4,1.7c0.1,0,0.2,0,0.3,0c0.7,0,1.3-0.5,1.4-1.2c0.1-0.8-0.4-1.6-1.2-1.7
		c-5-0.9-10.3-1.5-15.8-1.7c-0.8,0-1.5,0.6-1.5,1.4C49.3,49.4,49.9,50.1,50.7,50.1L50.7,50.1z M50.7,50.1"/>
	<path d="M76.1,63.6c-4.8-1.4-10.1-2.5-15.8-3.2c-0.8-0.1-1.5,0.5-1.6,1.3c-0.1,0.8,0.5,1.5,1.3,1.6c5.5,0.7,10.7,1.7,15.3,3.1
		c0.1,0,0.3,0.1,0.4,0.1c0.6,0,1.2-0.4,1.4-1.1C77.3,64.6,76.9,63.8,76.1,63.6L76.1,63.6z M76.1,63.6"/>
	<path d="M50.7,62.6c1,0,2.1,0.1,3.1,0.2c0,0,0.1,0,0.1,0c0.8,0,1.4-0.6,1.5-1.4c0.1-0.8-0.5-1.5-1.4-1.6c-1-0.1-2.1-0.1-3.1-0.2
		c-0.8,0-1.5,0.6-1.5,1.4C49.3,61.8,49.9,62.5,50.7,62.6L50.7,62.6z M50.7,62.6"/>
	<path d="M76.1,76.1c-2.9-0.9-6.1-1.6-9.5-2.2c-0.8-0.1-1.6,0.4-1.7,1.2c-0.1,0.8,0.4,1.6,1.2,1.7c3.3,0.6,6.3,1.3,9.2,2.1
		c0.1,0,0.3,0.1,0.4,0.1c0.6,0,1.2-0.4,1.4-1.1C77.3,77.1,76.9,76.3,76.1,76.1L76.1,76.1z M76.1,76.1"/>
	<path d="M50.7,75c3.1,0.1,6.2,0.4,9.2,0.8c0.1,0,0.1,0,0.2,0c0.7,0,1.4-0.5,1.4-1.3c0.1-0.8-0.5-1.5-1.3-1.6
		c-3.1-0.4-6.2-0.6-9.5-0.8c-0.8,0-1.5,0.6-1.5,1.4C49.3,74.3,49.9,75,50.7,75L50.7,75z M50.7,75"/>
	<path d="M76.1,82.3c-4.8-1.4-10.1-2.5-15.8-3.2c-0.8-0.1-1.5,0.5-1.6,1.3c-0.1,0.8,0.5,1.5,1.3,1.6c5.5,0.7,10.7,1.7,15.3,3.1
		c0.1,0,0.3,0.1,0.4,0.1c0.6,0,1.2-0.4,1.4-1.1C77.3,83.3,76.9,82.5,76.1,82.3L76.1,82.3z M76.1,82.3"/>
	<path d="M50.7,81.3c1,0,2.1,0.1,3.1,0.2c0,0,0.1,0,0.1,0c0.8,0,1.4-0.6,1.5-1.4c0.1-0.8-0.5-1.5-1.4-1.6c-1-0.1-2.1-0.1-3.2-0.2
		c-0.8,0-1.5,0.6-1.5,1.4C49.3,80.5,49.9,81.2,50.7,81.3L50.7,81.3z M50.7,81.3"/>
	<path d="M75.3,72.6c0.1,0,0.3,0.1,0.4,0.1c0.6,0,1.2-0.4,1.4-1.1c0.2-0.8-0.2-1.6-1-1.8c-1-0.3-2.1-0.6-3.2-0.9
		c-0.8-0.2-1.6,0.3-1.8,1.1c-0.2,0.8,0.3,1.6,1.1,1.8C73.3,72.1,74.3,72.3,75.3,72.6L75.3,72.6z M75.3,72.6"/>
	<path d="M50.7,68.8c5.3,0.2,10.5,0.8,15.4,1.7c0.1,0,0.2,0,0.3,0c0.7,0,1.3-0.5,1.4-1.2c0.1-0.8-0.4-1.6-1.2-1.7
		c-5-0.9-10.3-1.5-15.8-1.7c-0.8,0-1.5,0.6-1.5,1.4C49.3,68.1,49.9,68.8,50.7,68.8L50.7,68.8z M50.7,68.8"/>
	<path d="M88.1,47.8c0.1,0,0.3,0,0.4-0.1c4.2-1.2,8.8-2.2,13.8-2.9c0.8-0.1,1.4-0.8,1.3-1.6c-0.1-0.8-0.8-1.4-1.6-1.3
		c-5.1,0.7-9.9,1.7-14.2,3c-0.8,0.2-1.2,1-1,1.8C86.9,47.3,87.5,47.8,88.1,47.8L88.1,47.8z M88.1,47.8"/>
	<path d="M108.4,44.2c0,0,0.1,0,0.1,0c1.5-0.1,3.1-0.2,4.6-0.3c0.8,0,1.4-0.7,1.4-1.5c0-0.8-0.7-1.4-1.5-1.4
		c-1.6,0.1-3.2,0.2-4.7,0.3c-0.8,0.1-1.4,0.8-1.3,1.6C107,43.6,107.6,44.2,108.4,44.2L108.4,44.2z M108.4,44.2"/>
	<path d="M88.1,60.2c0.1,0,0.3,0,0.4-0.1c2.8-0.8,5.9-1.6,9.2-2.1c0.8-0.1,1.3-0.9,1.2-1.7S98,55,97.2,55.2
		c-3.4,0.6-6.6,1.3-9.5,2.2c-0.8,0.2-1.2,1-1,1.8C86.9,59.8,87.5,60.2,88.1,60.2L88.1,60.2z M88.1,60.2"/>
	<path d="M113,53.4c-3.2,0.1-6.4,0.4-9.5,0.8c-0.8,0.1-1.4,0.8-1.3,1.6c0.1,0.7,0.7,1.3,1.4,1.3c0.1,0,0.1,0,0.2,0
		c3-0.4,6.1-0.6,9.2-0.8c0.8,0,1.4-0.7,1.4-1.5C114.5,54,113.8,53.4,113,53.4L113,53.4z M113,53.4"/>
	<path d="M88.1,54c0.1,0,0.3,0,0.4-0.1c1-0.3,2-0.6,3.1-0.8c0.8-0.2,1.3-1,1.1-1.8c-0.2-0.8-1-1.3-1.8-1.1c-1.1,0.3-2.2,0.6-3.2,0.9
		c-0.8,0.2-1.2,1-1,1.8C86.9,53.6,87.5,54,88.1,54L88.1,54z M88.1,54"/>
	<path d="M113,47.2c-5.5,0.3-10.8,0.8-15.8,1.7c-0.8,0.1-1.3,0.9-1.2,1.7c0.1,0.7,0.7,1.2,1.4,1.2c0.1,0,0.2,0,0.3,0
		c4.9-0.9,10-1.4,15.4-1.7c0.8,0,1.4-0.7,1.4-1.5C114.5,47.8,113.8,47.1,113,47.2L113,47.2z M113,47.2"/>
	<path d="M88.1,66.5c0.1,0,0.3,0,0.4-0.1c4.6-1.4,9.8-2.4,15.3-3.1c0.8-0.1,1.4-0.8,1.3-1.6c-0.1-0.8-0.8-1.4-1.6-1.3
		c-5.7,0.7-11,1.8-15.8,3.2c-0.8,0.2-1.2,1-1,1.8C86.9,66,87.5,66.5,88.1,66.5L88.1,66.5z M88.1,66.5"/>
	<path d="M113,59.6c-1.1,0-2.1,0.1-3.1,0.2c-0.8,0.1-1.4,0.8-1.4,1.6c0.1,0.8,0.7,1.4,1.5,1.4c0,0,0.1,0,0.1,0c1-0.1,2-0.1,3.1-0.2
		c0.8,0,1.4-0.7,1.4-1.5C114.5,60.2,113.8,59.6,113,59.6L113,59.6z M113,59.6"/>
	<path d="M86.7,77.9c0.2,0.6,0.8,1.1,1.4,1.1c0.1,0,0.3,0,0.4-0.1c2.8-0.8,5.9-1.6,9.2-2.1c0.8-0.1,1.3-0.9,1.2-1.7
		c-0.1-0.8-0.9-1.3-1.7-1.2c-3.4,0.6-6.6,1.3-9.5,2.2C87,76.3,86.5,77.1,86.7,77.9L86.7,77.9z M86.7,77.9"/>
	<path d="M113,72.1c-3.2,0.1-6.4,0.4-9.5,0.8c-0.8,0.1-1.4,0.8-1.3,1.6c0.1,0.7,0.7,1.3,1.4,1.3c0.1,0,0.1,0,0.2,0
		c3-0.4,6.1-0.6,9.2-0.8c0.8,0,1.4-0.7,1.4-1.5C114.5,72.7,113.8,72.1,113,72.1L113,72.1z M113,72.1"/>
	<path d="M103.5,79.1c-5.7,0.7-11,1.8-15.8,3.2c-0.8,0.2-1.2,1-1,1.8c0.2,0.6,0.8,1.1,1.4,1.1c0.1,0,0.3,0,0.4-0.1
		c4.6-1.4,9.8-2.4,15.3-3.1c0.8-0.1,1.4-0.8,1.3-1.6C105.1,79.6,104.3,79,103.5,79.1L103.5,79.1z M103.5,79.1"/>
	<path d="M113,78.3c-1,0-2.1,0.1-3.2,0.2c-0.8,0.1-1.4,0.8-1.4,1.6c0.1,0.8,0.7,1.4,1.5,1.4c0,0,0.1,0,0.1,0c1-0.1,2.1-0.1,3.1-0.2
		c0.8,0,1.4-0.7,1.4-1.5C114.5,78.9,113.8,78.3,113,78.3L113,78.3z M113,78.3"/>
	<path d="M88.1,72.7c0.1,0,0.3,0,0.4-0.1c1-0.3,2-0.6,3.1-0.8c0.8-0.2,1.3-1,1.1-1.8c-0.2-0.8-1-1.3-1.8-1.1
		c-1.1,0.3-2.2,0.6-3.2,0.9c-0.8,0.2-1.2,1-1,1.8C86.9,72.3,87.5,72.7,88.1,72.7L88.1,72.7z M88.1,72.7"/>
	<path d="M113,65.9c-5.5,0.3-10.8,0.8-15.8,1.7c-0.8,0.1-1.3,0.9-1.2,1.7c0.1,0.7,0.7,1.2,1.4,1.2c0.1,0,0.2,0,0.3,0
		c4.9-0.9,10-1.4,15.4-1.7c0.8,0,1.4-0.7,1.4-1.5C114.5,66.5,113.8,65.8,113,65.9L113,65.9z M113,65.9"/>
</g>
</svg>
