<?xml version="1.0" encoding="utf-8"?>
<!-- Generator: Adobe Illustrator 15.1.0, SVG Export Plug-In . SVG Version: 6.00 Build 0)  -->
<!DOCTYPE svg PUBLIC "-//W3C//DTD SVG 1.1//EN" "http://www.w3.org/Graphics/SVG/1.1/DTD/svg11.dtd" [
	<!ENTITY st0 "fill:#010101;">
]>
<svg version="1.1" id="Layer_1" xmlns="http://www.w3.org/2000/svg" xmlns:xlink="http://www.w3.org/1999/xlink" x="0px" y="0px"
	 width="140px" height="137.333px" viewBox="0 0 140 137.333" style="enable-background:new 0 0 140 137.333;" xml:space="preserve"
	>
<g id="Shape_9_">
	<path style="&st0;" d="M89.518,70.7c0-0.5-0.198-0.98-0.552-1.334l-7.268-7.267l-2.666,2.666l4.05,4.05h-9.983v3.77h9.983
		l-4.05,4.049l2.666,2.666l7.267-7.266C89.319,71.678,89.518,71.2,89.518,70.7L89.518,70.7z"/>
</g>
<g id="Oval-25_2_">
	<path style="&st0;" d="M72.052,128.311c-33.36,0-60.5-27.141-60.5-60.5s27.14-60.5,60.5-60.5s60.5,27.141,60.5,60.5
		S105.412,128.311,72.052,128.311z M72.052,8.31c-32.809,0-59.5,26.692-59.5,59.5s26.691,59.5,59.5,59.5s59.5-26.692,59.5-59.5
		S104.86,8.31,72.052,8.31z"/>
</g>
<g>
	<path style="&st0;" d="M108.142,54.479H81.563c0.264-0.79,0.23-1.626-0.109-2.437c-1.131-2.698-5.416-4.502-6.227-4.82
		c-7.234-3.1-18.445-5.027-25.877-2.715c-7.269,2.262-10.621-0.795-10.75-0.916c-0.043-0.042-1.777-1.375-1.777-1.375l0.549-0.946
		c0.333-0.573,0.228-1.3-0.256-1.754L26.143,29.18c-0.614,0.73-1.212,1.475-1.792,2.233l9.984,9.407L22.969,60.439L13.721,53.9
		c0,0-0.263,0.694-0.732,3.336l9.667,6.423c0.326,0.217,0.73,0.291,1.113,0.2c3.774,11.529,19.957,24.346,21.803,25.777l2.059,2.623
		c0.671,0.854,1.756,1.314,2.975,1.262c1.058-0.047,2.149-0.473,3.071-1.197c0.506-0.396,0.929-0.859,1.258-1.361
		c0.921,1.172,2.101,1.936,3.378,2.221c1.361,0.301,2.729,0.018,3.744-0.781c0.559-0.441,0.986-1.018,1.268-1.676
		c1.41,1.148,3.705,1.01,5.547-0.438c0.725-0.568,1.275-1.273,1.629-2.027c2.896,1.691,5.322,2.182,7.223,1.451
		c2.102-0.809,2.654-2.73,2.711-2.949s0.053-0.438,0.012-0.646h27.697c0.789,0,1.428-0.641,1.428-1.428V55.906
		C109.569,55.118,108.931,54.479,108.142,54.479z M40.896,55.908v25.957c-5.894-5.449-13.789-13.896-14.908-20.94l2.637-4.551
		l6.76-11.665l1.296,0.993c0.665,0.601,5.076,4.159,13.521,1.533c6.697-2.085,17.316-0.211,23.943,2.628
		c1.643,0.647,4.18,2.095,4.678,3.285c0.094,0.22,0.076,0.349,0.021,0.477c-0.119,0.281-0.141,0.579-0.08,0.857H42.321
		C41.532,54.481,40.896,55.12,40.896,55.908z M51.913,90.08c-0.45,0.354-0.975,0.568-1.434,0.588
		c-0.283,0.012-0.51-0.051-0.604-0.174l-4.116-5.24c-0.227-0.287,0.018-1.201,0.885-1.883c0.807-0.637,1.629-0.672,1.942-0.488
		l4.271,5.436c0.014,0.051,0.021,0.105,0.021,0.17C52.878,88.904,52.579,89.556,51.913,90.08z M60.294,90.156
		c-0.469,0.369-1.055,0.309-1.36,0.24c-0.627-0.139-1.245-0.549-1.696-1.125l-2.008-2.555c-0.061-0.094-0.115-0.193-0.187-0.281
		l-4.115-5.242c-0.087-0.111-0.182-0.213-0.28-0.311l-0.414-0.525c-0.445-0.568-0.691-1.23-0.691-1.869
		c0-0.328,0.07-0.934,0.555-1.312c0.792-0.623,2.196-0.217,3.062,0.887l7,8.912c0.445,0.568,0.691,1.232,0.691,1.869
		C60.851,89.169,60.78,89.777,60.294,90.156z M67.11,88.044c-0.91,0.711-1.838,0.672-2.041,0.416l-4.117-5.244
		c-0.225-0.285,0.019-1.199,0.887-1.881c0.449-0.354,0.973-0.568,1.434-0.588c0.283-0.012,0.508,0.053,0.604,0.174l4.119,5.242
		c0.053,0.064,0.078,0.162,0.078,0.289C68.073,86.867,67.774,87.521,67.11,88.044z M76.661,87.062
		c-0.574,0.207-1.824,0.301-4.152-0.943h5.131C77.552,86.326,77.284,86.837,76.661,87.062z M106.716,83.261H69.345l-3.055-3.305
		c0,0-1.23-1.73-3.453-1.73s-3.756,3.609-3.756,3.609s-5.461-7.467-7.473-7.455c-2.441-0.012-5.465,2.674-3.768,6.096
		c0.256,0.516-1.775,0.248-2.698,1.359s-1.396,2.17-1.396,2.17V57.333h62.969V83.261z"/>
</g>
</svg>
